<?xml version="1.0" encoding="UTF-8" standalone="no"?>
<svg
   xmlns:dc="http://purl.org/dc/elements/1.1/"
   xmlns:cc="http://creativecommons.org/ns#"
   xmlns:rdf="http://www.w3.org/1999/02/22-rdf-syntax-ns#"
   xmlns:svg="http://www.w3.org/2000/svg"
   xmlns="http://www.w3.org/2000/svg"
   xmlns:sodipodi="http://sodipodi.sourceforge.net/DTD/sodipodi-0.dtd"
   xmlns:inkscape="http://www.inkscape.org/namespaces/inkscape"
   width="480"
   height="320"
   viewBox="0 0 127 84.66667"
   version="1.1"
   id="svg8"
   inkscape:version="1.0.2-2 (e86c870879, 2021-01-15)"
   sodipodi:docname="1o1obg.svg">
  <defs
     id="defs2" />
  <sodipodi:namedview
     id="base"
     pagecolor="#ffffff"
     bordercolor="#666666"
     borderopacity="1.0"
     inkscape:pageopacity="0.0"
     inkscape:pageshadow="2"
     inkscape:zoom="1.4142136"
     inkscape:cx="214.65401"
     inkscape:cy="179.58279"
     inkscape:document-units="px"
     inkscape:current-layer="layer1"
     inkscape:document-rotation="0"
     showgrid="false"
     fit-margin-top="0"
     fit-margin-left="0"
     fit-margin-right="0"
     fit-margin-bottom="0"
     units="px"
     inkscape:window-width="1920"
     inkscape:window-height="1017"
     inkscape:window-x="-8"
     inkscape:window-y="-8"
     inkscape:window-maximized="1" />
  <metadata
     id="metadata5">
    <rdf:RDF>
      <cc:Work
         rdf:about="">
        <dc:format>image/svg+xml</dc:format>
        <dc:type
           rdf:resource="http://purl.org/dc/dcmitype/StillImage" />
        <dc:title></dc:title>
      </cc:Work>
    </rdf:RDF>
  </metadata>
  <g
     inkscape:label="Layer 1"
     inkscape:groupmode="layer"
     id="layer1"
     transform="translate(175.36102,-127.28478)">
    <rect
       style="fill:#000000;fill-opacity:1;stroke:none;stroke-width:1;stroke-linecap:square"
       id="rect1292"
       width="127"
       height="84.666672"
       x="-175.36102"
       y="127.28478" />
    <g
       aria-label="DOUBLE TAP TO RESET"
       transform="matrix(0,-1.0000008,0.99999921,0,0,0)"
       id="text853"
       style="font-style:italic;font-variant:normal;font-weight:bold;font-stretch:normal;font-size:3.70417px;line-height:1.25;font-family:Barlow;-inkscape-font-specification:'Barlow Bold Italic';text-align:center;letter-spacing:0px;text-anchor:middle;stroke-width:0.264583" />
    <g
       aria-label="CURRENT STATUS"
       id="text953"
       style="font-weight:bold;font-size:3.175px;line-height:1.25;font-family:'DM Sans';-inkscape-font-specification:'DM Sans Bold';text-align:center;letter-spacing:0px;text-anchor:middle;stroke-width:0.264583" />
    <path
       style="fill:#a9f582;stroke-width:1"
       d="m -53.813122,134.86324 c -0.01478,-0.0385 -0.01951,-0.34843 -0.01051,-0.68867 l 0.01637,-0.61862 0.256243,-0.25636 c 0.307572,-0.30772 0.401686,-0.54021 0.47317,-1.16884 0.05238,-0.46068 0.01059,-1.06625 -0.100059,-1.44968 -0.09486,-0.32873 -0.327391,-0.60973 -0.629597,-0.76083 -0.257474,-0.12874 -0.318513,-0.13983 -0.769093,-0.13983 -0.442727,0 -0.515011,0.0126 -0.75762,0.13169 -0.50759,0.24926 -0.689569,0.66265 -0.721746,1.63955 -0.03017,0.91603 0.123165,1.50216 0.465529,1.77949 0.102144,0.0827 0.10449,0.10445 0.08899,0.8235 l -0.01592,0.73852 -0.166689,-0.0313 c -0.510162,-0.0957 -1.115913,-0.45158 -1.420961,-0.8348 -0.412297,-0.51796 -0.591269,-1.11243 -0.627851,-2.08545 -0.03942,-1.04855 0.125606,-1.85113 0.489276,-2.37949 0.596834,-0.86712 1.810678,-1.28231 3.249638,-1.11152 1.634345,0.19397 2.419658,1.0196 2.592631,2.72575 0.05889,0.5809 0.01009,1.28467 -0.125659,1.81223 -0.237647,0.92353 -0.86361,1.57489 -1.746928,1.81781 -0.461527,0.12692 -0.510345,0.13206 -0.539219,0.0568 z"
       id="path1236" />
    <path
       style="fill:#66cfae;stroke-width:1"
       d="m -63.013308,135.56025 v -0.67587 h 0.95554 0.955539 v -2.4238 -2.42381 h -0.978845 -0.978845 v -0.50467 -0.50467 l 0.314629,-0.0572 c 0.473204,-0.0861 1.367854,-0.39739 1.963422,-0.68327 0.512006,-0.24578 0.543447,-0.25447 0.92058,-0.25447 h 0.390469 v 3.42596 3.42595 h 0.885621 0.885622 v 0.67587 0.67587 h -2.656866 -2.656866 z"
       id="path1234" />
    <path
       style="fill:#648996;stroke-width:1"
       d="m -59.610654,138.63662 v -0.67586 h 0.95554 0.955538 v -2.42381 -2.42381 h -0.887147 -0.887149 l 0.01318,-0.51754 0.01318,-0.51754 0.419505,-0.10619 c 0.230728,-0.0584 0.610625,-0.17808 0.844214,-0.26595 l 0.424711,-0.15977 0.0273,0.53879 c 0.03199,0.63143 0.12082,1.01575 0.343483,1.48604 0.202421,0.42753 0.577141,0.81283 1.006427,1.03482 l 0.313367,0.16206 1.93e-4,1.59645 1.94e-4,1.59645 h 0.885622 0.885622 v 0.67586 0.67587 h -2.656866 -2.656865 v -0.67587 z"
       id="path1232" />
    <path
       style="fill:#a3233a;stroke-width:1"
       d="m -53.231291,137.47147 c -1.184539,-0.22444 -1.859197,-0.84358 -2.158776,-1.98113 -0.107507,-0.40823 -0.148709,-1.54654 -0.07438,-2.05489 0.0676,-0.46231 0.266725,-1.03144 0.458222,-1.30966 0.346033,-0.50274 0.967684,-0.90499 1.598279,-1.0342 l 0.29962,-0.0614 0.0372,0.26073 c 0.02046,0.1434 0.02359,0.45676 0.007,0.69636 -0.02537,0.36556 -0.04596,0.44802 -0.128078,0.51272 -0.507802,0.40014 -0.667468,0.89884 -0.626482,1.95677 0.02616,0.67516 0.105071,0.98208 0.327476,1.27368 0.239529,0.31404 0.51894,0.43078 1.079193,0.45087 0.393745,0.0141 0.511792,7.3e-4 0.735526,-0.0835 0.489767,-0.18437 0.735198,-0.58321 0.832752,-1.35327 0.113087,-0.89268 -0.102667,-1.8398 -0.484761,-2.12801 -0.100334,-0.0757 -0.103534,-0.0969 -0.0652,-0.43241 0.02217,-0.19404 0.028,-0.52758 0.01296,-0.74118 l -0.02736,-0.38838 0.152054,0.0327 c 0.746162,0.16042 1.380964,0.61418 1.698306,1.21397 0.435452,0.82301 0.546502,2.16933 0.268157,3.25102 -0.249739,0.97053 -0.87786,1.59166 -1.877636,1.85677 -0.474045,0.12569 -1.557247,0.15847 -2.064041,0.0625 z"
       id="path1230" />
    <path
       id="path1263"
       style="font-style:italic;font-variant:normal;font-weight:bold;font-stretch:normal;font-size:3.175px;line-height:1.25;font-family:Archivo;-inkscape-font-specification:'Archivo Bold Italic';text-align:center;letter-spacing:0px;text-anchor:middle;fill:#c0c0c0;fill-opacity:1;stroke-width:0.264583"
       d="m -163.83195,127.2193 c -0.15453,-0.004 -0.27693,0.01 -0.36794,0.0413 -0.091,0.0296 -0.16114,0.0815 -0.20981,0.15554 -0.0465,0.072 -0.0781,0.17366 -0.0951,0.30489 l -0.01,0.0703 c 0,0.0106 -0.005,0.0155 -0.016,0.0155 h -0.18087 c -0.0106,0 -0.0205,0.004 -0.0289,0.0129 -0.008,0.006 -0.0124,0.0147 -0.0124,0.0253 l -0.0382,0.30179 c -0.003,0.0106 -4.7e-4,0.02 0.006,0.0284 0.006,0.007 0.0147,0.01 0.0253,0.01 h 0.18087 c 0.0106,0 0.016,0.005 0.016,0.016 l -0.14934,1.20354 c -0.003,0.0106 -4.7e-4,0.02 0.006,0.0284 0.006,0.007 0.0147,0.01 0.0253,0.01 h 0.36173 c 0.0103,0 0.0187,-0.003 0.0253,-0.01 0.009,-0.008 0.014,-0.0178 0.016,-0.0284 l 0.14625,-1.20354 c 0.004,-0.0106 0.0106,-0.016 0.0191,-0.016 h 0.29817 c 0.0103,0 0.0187,-0.003 0.0253,-0.01 0.009,-0.008 0.014,-0.0178 0.016,-0.0284 l 0.0382,-0.30179 c 0.002,-0.0103 -10e-4,-0.0187 -0.01,-0.0253 -0.006,-0.008 -0.0152,-0.0129 -0.0258,-0.0129 l -0.29663,5.1e-4 c -0.008,0 -0.0124,-0.005 -0.0124,-0.016 l 0.006,-0.0346 c 0.008,-0.0762 0.0277,-0.12801 0.0574,-0.15555 0.0317,-0.0297 0.0846,-0.0455 0.15864,-0.0475 h 0.10181 c 0.0103,0 0.0187,-0.004 0.0253,-0.0103 0.009,-0.008 0.014,-0.0178 0.016,-0.0284 l 0.0315,-0.25735 c 0,-0.0254 -0.0114,-0.0382 -0.0346,-0.0382 z m 1.19114,0 c -0.15452,-0.004 -0.27744,0.01 -0.36846,0.0413 -0.091,0.0296 -0.16114,0.0815 -0.2098,0.15554 -0.0465,0.072 -0.0781,0.17366 -0.0951,0.30489 l -0.01,0.0703 c 0,0.0106 -0.005,0.0155 -0.016,0.0155 h -0.18086 c -0.0106,0 -0.02,0.004 -0.0284,0.0129 -0.008,0.006 -0.0129,0.0147 -0.0129,0.0253 l -0.0382,0.30179 c -0.003,0.0106 -4.7e-4,0.02 0.006,0.0284 0.006,0.007 0.0147,0.01 0.0253,0.01 h 0.18087 c 0.0106,0 0.016,0.005 0.016,0.016 l -0.14935,1.20354 c -0.003,0.0106 -4.7e-4,0.02 0.006,0.0284 0.006,0.007 0.0147,0.01 0.0253,0.01 h 0.36174 c 0.0103,0 0.0192,-0.003 0.0258,-0.01 0.009,-0.008 0.0135,-0.0178 0.0155,-0.0284 l 0.14624,-1.20354 c 0.004,-0.0106 0.0107,-0.016 0.0191,-0.016 h 0.29818 c 0.0103,0 0.0187,-0.003 0.0253,-0.01 0.009,-0.008 0.014,-0.0178 0.016,-0.0284 l 0.0382,-0.30179 c 0.002,-0.0103 -0.001,-0.0187 -0.01,-0.0253 -0.006,-0.008 -0.0152,-0.0129 -0.0258,-0.0129 l -0.2961,5.1e-4 c -0.008,0 -0.0129,-0.005 -0.0129,-0.016 l 0.006,-0.0346 c 0.009,-0.0762 0.0272,-0.12801 0.0568,-0.15555 0.0317,-0.0297 0.0851,-0.0455 0.15917,-0.0475 h 0.10128 c 0.0103,0 0.0187,-0.004 0.0253,-0.0103 0.009,-0.008 0.014,-0.0178 0.016,-0.0284 l 0.0315,-0.25735 c 0,-0.0254 -0.0113,-0.0382 -0.0346,-0.0382 z m -9.24285,0.062 c -0.12065,0.0635 -0.25491,0.1198 -0.40308,0.16846 -0.14604,0.0487 -0.26798,0.0783 -0.36535,0.0889 l -0.0475,0.26975 h 0.51418 l -0.22841,1.29553 h -0.51108 l -0.0636,0.35553 h 1.41283 l 0.0636,-0.35553 h -0.46663 l 0.32039,-1.82263 z m 4.86844,0 c -0.12066,0.0635 -0.25543,0.1198 -0.4036,0.16846 -0.14604,0.0487 -0.26747,0.0783 -0.36483,0.0889 l -0.0475,0.26975 h 0.51418 l -0.22841,1.29553 h -0.51108 l -0.0636,0.35553 h 1.41284 l 0.0636,-0.35553 h -0.46715 l 0.32091,-1.82263 z m -3.47731,0.50333 c -0.17145,0 -0.32399,0.0444 -0.45734,0.13332 -0.13335,0.0889 -0.23405,0.21182 -0.30179,0.36845 -0.0402,0.091 -0.0688,0.20306 -0.0858,0.33642 -0.007,0.0529 -0.01,0.10571 -0.01,0.15864 0,0.0656 0.004,0.1209 0.0129,0.16537 0.0254,0.16087 0.094,0.28772 0.20619,0.38085 0.11218,0.0931 0.25384,0.14005 0.4253,0.14005 0.17356,0 0.32709,-0.0469 0.46043,-0.14005 0.13337,-0.0952 0.23309,-0.22505 0.29869,-0.39015 0.0423,-0.10795 0.0695,-0.21508 0.0822,-0.32091 0.007,-0.0444 0.0103,-0.0898 0.0103,-0.13643 0,-0.072 -0.006,-0.13762 -0.0191,-0.19689 -0.0296,-0.15663 -0.0987,-0.27857 -0.2067,-0.36535 -0.10795,-0.0889 -0.24615,-0.13332 -0.41548,-0.13332 z m 1.83761,0 v 10e-4 c -0.16933,0 -0.30162,0.0612 -0.39687,0.18397 -0.004,0.004 -0.008,0.005 -0.0124,0.003 -0.002,-0.002 -0.003,-0.006 -0.003,-0.0129 l 0.0124,-0.11111 c 0.003,-0.0103 9.8e-4,-0.0186 -0.006,-0.0253 -0.006,-0.008 -0.0147,-0.0129 -0.0253,-0.0129 h -0.35915 c -0.0106,0 -0.0199,0.004 -0.0284,0.0129 -0.006,0.006 -0.0109,0.0147 -0.0129,0.0253 l -0.19017,1.55598 c -0.003,0.0106 -9.8e-4,0.02 0.006,0.0284 0.006,0.007 0.0152,0.01 0.0258,0.01 h 0.35864 c 0.0103,0 0.0187,-0.003 0.0253,-0.01 0.009,-0.008 0.014,-0.0178 0.016,-0.0284 l 0.1173,-0.94929 c 0.0105,-0.0868 0.0422,-0.15591 0.0951,-0.20671 0.0529,-0.0529 0.11759,-0.0791 0.19379,-0.0791 0.0656,0 0.11844,0.0222 0.15864,0.0667 0.0402,0.0423 0.0605,0.0981 0.0605,0.16795 0,0.0233 -0.001,0.0406 -0.003,0.0512 l -0.1173,0.94929 c 0,0.0254 0.0113,0.0377 0.0346,0.0377 h 0.35915 c 0.0103,0 0.0187,-0.003 0.0253,-0.01 0.009,-0.008 0.014,-0.0178 0.016,-0.0284 l 0.12661,-1.0418 c 0.004,-0.0465 0.006,-0.0791 0.006,-0.0982 0,-0.15028 -0.0434,-0.26776 -0.13022,-0.35243 -0.0868,-0.0847 -0.20427,-0.12712 -0.35244,-0.12712 z m 3.01894,0 c -0.17145,0 -0.32399,0.0444 -0.45734,0.13332 -0.13335,0.0889 -0.23405,0.21182 -0.30179,0.36845 -0.0402,0.091 -0.0688,0.20306 -0.0858,0.33642 -0.007,0.0529 -0.01,0.10571 -0.01,0.15864 0,0.0656 0.004,0.1209 0.0129,0.16537 0.0254,0.16087 0.094,0.28772 0.20619,0.38085 0.11218,0.0931 0.25384,0.14005 0.4253,0.14005 0.17356,0 0.32709,-0.0469 0.46043,-0.14005 0.13337,-0.0952 0.23309,-0.22505 0.29869,-0.39015 0.0423,-0.10795 0.0695,-0.21508 0.0822,-0.32091 0.007,-0.0444 0.0103,-0.0898 0.0103,-0.13643 0,-0.072 -0.006,-0.13762 -0.0191,-0.19689 -0.0296,-0.15663 -0.0987,-0.27857 -0.2067,-0.36535 -0.10795,-0.0889 -0.24615,-0.13332 -0.41548,-0.13332 z m -4.91081,0.38447 c 0.0825,0 0.14622,0.0272 0.19069,0.0822 0.0445,0.055 0.0667,0.13156 0.0667,0.22893 0,0.0445 -0.004,0.0918 -0.0103,0.14263 -0.008,0.0783 -0.0252,0.15235 -0.0506,0.22221 -0.0317,0.0741 -0.0742,0.13233 -0.12712,0.17466 -0.0508,0.0423 -0.11004,0.0636 -0.17777,0.0636 -0.0804,0 -0.1426,-0.0277 -0.18707,-0.0827 -0.0445,-0.055 -0.0667,-0.12907 -0.0667,-0.22221 0,-0.0508 0.003,-0.10261 0.01,-0.15554 0.0106,-0.0995 0.0274,-0.17451 0.0506,-0.22531 0.0296,-0.072 0.0701,-0.12827 0.12092,-0.16847 0.0529,-0.0402 0.11314,-0.0599 0.18087,-0.0599 z m 4.85655,0 c 0.0825,0 0.14622,0.0272 0.19069,0.0822 0.0445,0.055 0.0667,0.13156 0.0667,0.22893 0,0.0445 -0.004,0.0918 -0.0103,0.14263 -0.008,0.0783 -0.0252,0.15235 -0.0506,0.22221 -0.0317,0.0741 -0.0742,0.13233 -0.12712,0.17466 -0.0508,0.0423 -0.11004,0.0636 -0.17777,0.0636 -0.0804,0 -0.1426,-0.0277 -0.18707,-0.0827 -0.0445,-0.055 -0.0667,-0.12907 -0.0667,-0.22221 0,-0.0508 0.003,-0.10261 0.01,-0.15554 0.0106,-0.0995 0.0274,-0.17451 0.0506,-0.22531 0.0296,-0.072 0.0701,-0.12827 0.12092,-0.16847 0.0529,-0.0402 0.11314,-0.0599 0.18087,-0.0599 z" />
  </g>
</svg>
