<?xml version="1.0" encoding="UTF-8" standalone="no"?>
<svg
   xmlns:dc="http://purl.org/dc/elements/1.1/"
   xmlns:cc="http://creativecommons.org/ns#"
   xmlns:rdf="http://www.w3.org/1999/02/22-rdf-syntax-ns#"
   xmlns:svg="http://www.w3.org/2000/svg"
   xmlns="http://www.w3.org/2000/svg"
   xmlns:sodipodi="http://sodipodi.sourceforge.net/DTD/sodipodi-0.dtd"
   xmlns:inkscape="http://www.inkscape.org/namespaces/inkscape"
   width="31.999998"
   height="172"
   viewBox="0 0 8.4666662 45.508335"
   version="1.1"
   id="svg8"
   inkscape:version="1.0.2-2 (e86c870879, 2021-01-15)"
   sodipodi:docname="resetbtn.svg">
  <defs
     id="defs2" />
  <sodipodi:namedview
     id="base"
     pagecolor="#ffffff"
     bordercolor="#666666"
     borderopacity="1.0"
     inkscape:pageopacity="0.0"
     inkscape:pageshadow="2"
     inkscape:zoom="2.8284271"
     inkscape:cx="25.503267"
     inkscape:cy="106.60758"
     inkscape:document-units="px"
     inkscape:current-layer="layer1"
     inkscape:document-rotation="0"
     showgrid="false"
     fit-margin-top="0"
     fit-margin-left="0"
     fit-margin-right="0"
     fit-margin-bottom="0"
     units="px"
     inkscape:window-width="1920"
     inkscape:window-height="1017"
     inkscape:window-x="-8"
     inkscape:window-y="-8"
     inkscape:window-maximized="1" />
  <metadata
     id="metadata5">
    <rdf:RDF>
      <cc:Work
         rdf:about="">
        <dc:format>image/svg+xml</dc:format>
        <dc:type
           rdf:resource="http://purl.org/dc/dcmitype/StillImage" />
        <dc:title></dc:title>
      </cc:Work>
    </rdf:RDF>
  </metadata>
  <g
     inkscape:label="Layer 1"
     inkscape:groupmode="layer"
     id="layer1"
     transform="translate(-26.004763,-70.983925)">
    <rect
       style="fill:#000000;fill-opacity:1;stroke:none;stroke-width:0.999998;stroke-linecap:square"
       id="rect847"
       width="8.4666672"
       height="45.508335"
       x="26.004763"
       y="70.983925" />
    <rect
       style="fill:#c0c0c0;fill-opacity:1;stroke:none;stroke-width:0.999999;stroke-linecap:square"
       id="rect849"
       width="4.2333336"
       height="41.275002"
       x="28.121429"
       y="73.100594" />
    <g
       aria-label="DOUBLE TAP TO RESET"
       transform="matrix(0,-1.0000008,0.99999921,0,0,0)"
       id="text853"
       style="font-style:italic;font-variant:normal;font-weight:bold;font-stretch:normal;font-size:3.70417px;line-height:1.25;font-family:Barlow;-inkscape-font-specification:'Barlow Bold Italic';text-align:center;letter-spacing:0px;text-anchor:middle;stroke-width:0.264583" />
    <path
       d="m -111.96433,31.529024 q -0.0185,0 -0.0296,-0.01111 -0.0111,-0.01482 -0.007,-0.03334 l 0.30744,-2.504019 q 0.004,-0.01852 0.0148,-0.02963 0.0148,-0.01482 0.0333,-0.01482 h 0.90011 q 0.37042,0 0.58896,0.185209 0.21855,0.181504 0.21855,0.48895 0,0.03704 -0.007,0.111125 l -0.12594,1.022351 q -0.0259,0.233363 -0.15928,0.411163 -0.13335,0.1778 -0.3519,0.277813 -0.21484,0.09631 -0.48154,0.09631 z m 0.52229,-0.466725 q 0,0.01852 0.0148,0.01852 h 0.43709 q 0.16669,0 0.28152,-0.11483 0.11483,-0.114829 0.14076,-0.307446 l 0.10742,-0.851959 q 0.004,-0.02593 0.004,-0.07038 0,-0.162984 -0.0889,-0.255588 -0.0852,-0.09631 -0.24077,-0.09631 h -0.43338 q -0.007,0 -0.0148,0.0074 -0.004,0.0037 -0.004,0.01111 z"
       style="font-style:italic;font-variant:normal;font-weight:bold;font-stretch:normal;font-size:3.70417px;line-height:1.25;font-family:Barlow;-inkscape-font-specification:'Barlow Bold Italic';text-align:center;letter-spacing:0px;text-anchor:middle;stroke-width:0.264583"
       id="path888"
       transform="matrix(0,-1.0000008,0.99999921,0,1.0714055e-7,-1.2507364e-6)" />
    <path
       d="m -108.90099,31.56977 q -0.38524,0 -0.61489,-0.214842 -0.22596,-0.218546 -0.22596,-0.581555 0,-0.06668 0.0111,-0.144462 l 0.0963,-0.792693 q 0.0333,-0.274108 0.1778,-0.485246 0.14446,-0.211138 0.37042,-0.325967 0.22966,-0.118533 0.51117,-0.118533 0.38894,0 0.6149,0.214842 0.22966,0.214841 0.22966,0.570442 0,0.07038 -0.0111,0.144462 l -0.0963,0.792693 q -0.0333,0.277813 -0.1778,0.492654 -0.14446,0.211138 -0.37412,0.329672 -0.22966,0.118533 -0.51117,0.118533 z m 0.0556,-0.448205 q 0.20003,0 0.33338,-0.129646 0.13705,-0.129645 0.16668,-0.344487 l 0.10002,-0.814918 q 0.004,-0.02593 0.004,-0.07779 0,-0.185209 -0.10372,-0.29263 -0.10371,-0.107421 -0.28522,-0.107421 -0.19632,0 -0.33337,0.13335 -0.13706,0.129646 -0.16299,0.344488 l -0.10001,0.814918 q -0.004,0.02593 -0.004,0.07779 0,0.181505 0.10371,0.288925 0.10372,0.107421 0.28152,0.107421 z"
       style="font-style:italic;font-variant:normal;font-weight:bold;font-stretch:normal;font-size:3.70417px;line-height:1.25;font-family:Barlow;-inkscape-font-specification:'Barlow Bold Italic';text-align:center;letter-spacing:0px;text-anchor:middle;stroke-width:0.264583"
       id="path890"
       transform="matrix(0,-1.0000008,0.99999921,0,1.0714055e-7,-1.2507364e-6)" />
    <path
       d="m -106.64886,31.558657 q -0.38153,0 -0.60749,-0.207433 -0.22225,-0.207434 -0.22225,-0.555626 0,-0.03704 0.007,-0.125941 l 0.20744,-1.689102 q 0.004,-0.01852 0.0185,-0.02963 0.0148,-0.01482 0.0333,-0.01482 h 0.41858 q 0.0185,0 0.0296,0.01482 0.0111,0.01111 0.007,0.02963 l -0.20744,1.692806 q -0.004,0.02593 -0.004,0.07038 0,0.166688 0.10001,0.2667 0.10002,0.100013 0.27411,0.100013 0.18891,0 0.31856,-0.118534 0.13335,-0.122237 0.15928,-0.318558 l 0.20743,-1.692806 q 0.004,-0.01852 0.0148,-0.02963 0.0148,-0.01482 0.0333,-0.01482 h 0.42227 q 0.0185,0 0.0296,0.01482 0.0111,0.01111 0.007,0.02963 l -0.20743,1.689102 q -0.0333,0.262996 -0.1741,0.466725 -0.14075,0.200025 -0.36671,0.31115 -0.22225,0.111125 -0.50006,0.111125 z"
       style="font-style:italic;font-variant:normal;font-weight:bold;font-stretch:normal;font-size:3.70417px;line-height:1.25;font-family:Barlow;-inkscape-font-specification:'Barlow Bold Italic';text-align:center;letter-spacing:0px;text-anchor:middle;stroke-width:0.264583"
       id="path892"
       transform="matrix(0,-1.0000008,0.99999921,0,1.0714055e-7,-1.2507364e-6)" />
    <path
       d="m -103.63738,30.177002 q -0.0222,0.01111 -0.004,0.02222 0.27781,0.151871 0.27781,0.488951 0,0.03334 -0.007,0.114829 -0.0445,0.359304 -0.30744,0.544513 -0.2593,0.181504 -0.64083,0.181504 h -0.93345 q -0.0185,0 -0.0296,-0.01111 -0.0111,-0.01482 -0.007,-0.03334 l 0.30745,-2.504019 q 0.004,-0.01852 0.0148,-0.02963 0.0148,-0.01482 0.0333,-0.01482 h 0.90382 q 0.77047,0 0.77047,0.581555 0,0.0852 -0.007,0.129646 -0.0408,0.366713 -0.37042,0.529696 z m -0.87048,-0.792692 q -0.007,0 -0.0148,0.0074 -0.004,0.0037 -0.004,0.01111 l -0.0704,0.57785 q -0.007,0.01852 0.0148,0.01852 h 0.42227 q 0.16669,0 0.27041,-0.07779 0.10372,-0.08149 0.12224,-0.225954 l 0.004,-0.04445 q 0,-0.125942 -0.0852,-0.196321 -0.0815,-0.07038 -0.23706,-0.07038 z m 0.24448,1.692805 q 0.1815,0 0.28522,-0.100012 0.10742,-0.103717 0.10742,-0.281517 0,-0.129646 -0.0852,-0.200025 -0.0815,-0.07038 -0.23336,-0.07038 h -0.4445 q -0.0185,0 -0.0185,0.01852 l -0.0778,0.614893 q 0,0.01852 0.0148,0.01852 z"
       style="font-style:italic;font-variant:normal;font-weight:bold;font-stretch:normal;font-size:3.70417px;line-height:1.25;font-family:Barlow;-inkscape-font-specification:'Barlow Bold Italic';text-align:center;letter-spacing:0px;text-anchor:middle;stroke-width:0.264583"
       id="path894"
       transform="matrix(0,-1.0000008,0.99999921,0,1.0714055e-7,-1.2507364e-6)" />
    <path
       d="m -103.02619,31.529024 q -0.0185,0 -0.0296,-0.01111 -0.0111,-0.01482 -0.007,-0.03334 l 0.30744,-2.504019 q 0.004,-0.01852 0.0148,-0.02963 0.0148,-0.01482 0.0333,-0.01482 h 0.42227 q 0.0185,0 0.0296,0.01482 0.0111,0.01111 0.007,0.02963 l -0.25559,2.081744 q 0,0.01852 0.0148,0.01852 h 1.17423 q 0.0407,0 0.0407,0.04445 l -0.0444,0.359304 q -0.004,0.01852 -0.0185,0.03334 -0.0111,0.01111 -0.0296,0.01111 z"
       style="font-style:italic;font-variant:normal;font-weight:bold;font-stretch:normal;font-size:3.70417px;line-height:1.25;font-family:Barlow;-inkscape-font-specification:'Barlow Bold Italic';text-align:center;letter-spacing:0px;text-anchor:middle;stroke-width:0.264583"
       id="path896"
       transform="matrix(0,-1.0000008,0.99999921,0,1.0714055e-7,-1.2507364e-6)" />
    <path
       d="m -98.99606,29.33986 q -0.0037,0.01852 -0.01852,0.03334 -0.01111,0.01111 -0.02963,0.01111 h -1.181626 q -0.007,0 -0.0148,0.0074 -0.004,0.0037 -0.004,0.01111 l -0.0704,0.574146 q 0,0.01852 0.0148,0.01852 h 0.774174 q 0.01852,0 0.02963,0.01482 0.01111,0.01111 0.0074,0.02963 l -0.04445,0.359304 q -0.0037,0.01852 -0.01852,0.03334 -0.01111,0.01111 -0.02963,0.01111 h -0.774171 q -0.0185,0 -0.0185,0.01852 l -0.0741,0.600076 q 0,0.01852 0.0148,0.01852 h 1.177928 q 0.04075,0 0.04075,0.04445 l -0.04445,0.359304 q -0.0037,0.01852 -0.01852,0.03334 -0.01111,0.01111 -0.02963,0.01111 h -1.66317 q -0.0185,0 -0.0296,-0.01111 -0.0111,-0.01482 -0.007,-0.03334 l 0.30744,-2.504019 q 0.004,-0.01852 0.0148,-0.02963 0.0148,-0.01482 0.0333,-0.01482 h 1.659465 q 0.01852,0 0.02963,0.01482 0.01482,0.01111 0.01111,0.02963 z"
       style="font-style:italic;font-variant:normal;font-weight:bold;font-stretch:normal;font-size:3.70417px;line-height:1.25;font-family:Barlow;-inkscape-font-specification:'Barlow Bold Italic';text-align:center;letter-spacing:0px;text-anchor:middle;stroke-width:0.264583"
       id="path898"
       transform="matrix(0,-1.0000008,0.99999921,0,1.0714055e-7,-1.2507364e-6)" />
    <path
       d="m -96.140153,28.936105 q 0.01852,0 0.02963,0.01482 0.01111,0.01111 0.0074,0.02963 l -0.04445,0.363009 q 0,0.01852 -0.01482,0.03334 -0.01482,0.01111 -0.03334,0.01111 h -0.640821 q -0.01482,0 -0.02222,0.01852 l -0.255588,2.078039 q -0.0037,0.01852 -0.01852,0.03334 -0.01111,0.01111 -0.02963,0.01111 h -0.418571 q -0.01852,0 -0.02963,-0.01111 -0.01111,-0.01482 -0.0074,-0.03334 l 0.251884,-2.078039 q 0.0074,-0.01852 -0.01482,-0.01852 h -0.626005 q -0.01852,0 -0.02963,-0.01111 -0.01111,-0.01482 -0.0074,-0.03334 l 0.04445,-0.363009 q 0.0037,-0.01852 0.01482,-0.02963 0.01482,-0.01482 0.03334,-0.01482 z"
       style="font-style:italic;font-variant:normal;font-weight:bold;font-stretch:normal;font-size:3.70417px;line-height:1.25;font-family:Barlow;-inkscape-font-specification:'Barlow Bold Italic';text-align:center;letter-spacing:0px;text-anchor:middle;stroke-width:0.264583"
       id="path900"
       transform="matrix(0,-1.0000008,0.99999921,0,1.0714055e-7,-1.2507364e-6)" />
    <path
       d="m -94.732574,31.529024 q -0.03334,0 -0.04075,-0.03704 l -0.06297,-0.363008 q 0,-0.0037 -0.0037,-0.0074 -0.0037,-0.0074 -0.01111,-0.0074 h -0.885297 q -0.01111,0 -0.01852,0.01482 l -0.151871,0.363008 q -0.01111,0.03704 -0.04815,0.03704 h -0.459317 q -0.02222,0 -0.03334,-0.01482 -0.0074,-0.01482 0.0037,-0.03704 l 1.085322,-2.504019 q 0.01852,-0.03704 0.05186,-0.03704 h 0.563034 q 0.03334,0 0.04445,0.03704 l 0.466725,2.504019 v 0.01111 q 0,0.01852 -0.01111,0.02963 -0.01111,0.01111 -0.02963,0.01111 z m -0.840847,-0.840846 q -0.0037,0.02222 0.01111,0.02222 h 0.633414 q 0.01852,0 0.01852,-0.02222 l -0.188912,-1.100139 q -0.0037,-0.01482 -0.01111,-0.01111 -0.0074,0 -0.01111,0.01111 z"
       style="font-style:italic;font-variant:normal;font-weight:bold;font-stretch:normal;font-size:3.70417px;line-height:1.25;font-family:Barlow;-inkscape-font-specification:'Barlow Bold Italic';text-align:center;letter-spacing:0px;text-anchor:middle;stroke-width:0.264583"
       id="path902"
       transform="matrix(0,-1.0000008,0.99999921,0,1.0714055e-7,-1.2507364e-6)" />
    <path
       d="m -92.561934,28.932401 q 0.322263,0 0.511175,0.185208 0.192617,0.181505 0.192617,0.492655 0,0.03704 -0.0074,0.125942 -0.02963,0.233363 -0.155575,0.411163 -0.122238,0.1778 -0.318559,0.277812 -0.196321,0.09631 -0.437092,0.09631 h -0.511176 q -0.01482,0 -0.02222,0.01852 l -0.114829,0.944563 q -0.0037,0.01852 -0.01852,0.03334 -0.01111,0.01111 -0.02963,0.01111 h -0.418571 q -0.04075,0 -0.04075,-0.04445 l 0.31115,-2.507723 q 0,-0.01852 0.01482,-0.02963 0.01482,-0.01482 0.03334,-0.01482 z m -0.218546,1.170518 q 0.1778,0 0.296333,-0.11483 0.118534,-0.118533 0.118534,-0.296333 0,-0.140759 -0.0889,-0.22225 -0.0889,-0.0852 -0.237067,-0.0852 h -0.455613 q -0.01482,0 -0.02222,0.01852 l -0.08149,0.681567 q -0.0074,0.01852 0.01482,0.01852 z"
       style="font-style:italic;font-variant:normal;font-weight:bold;font-stretch:normal;font-size:3.70417px;line-height:1.25;font-family:Barlow;-inkscape-font-specification:'Barlow Bold Italic';text-align:center;letter-spacing:0px;text-anchor:middle;stroke-width:0.264583"
       id="path904"
       transform="matrix(0,-1.0000008,0.99999921,0,1.0714055e-7,-1.2507364e-6)" />
    <path
       d="m -89.002238,28.936105 q 0.01852,0 0.02963,0.01482 0.01111,0.01111 0.0074,0.02963 l -0.04445,0.363009 q 0,0.01852 -0.01482,0.03334 -0.01482,0.01111 -0.03334,0.01111 h -0.640821 q -0.01482,0 -0.02223,0.01852 l -0.255588,2.078039 q -0.0037,0.01852 -0.01852,0.03334 -0.01111,0.01111 -0.02963,0.01111 h -0.418572 q -0.01852,0 -0.02963,-0.01111 -0.01111,-0.01482 -0.0074,-0.03334 l 0.251883,-2.078039 q 0.0074,-0.01852 -0.01482,-0.01852 h -0.626005 q -0.01852,0 -0.02963,-0.01111 -0.01111,-0.01482 -0.0074,-0.03334 l 0.04445,-0.363009 q 0.0037,-0.01852 0.01482,-0.02963 0.01482,-0.01482 0.03334,-0.01482 z"
       style="font-style:italic;font-variant:normal;font-weight:bold;font-stretch:normal;font-size:3.70417px;line-height:1.25;font-family:Barlow;-inkscape-font-specification:'Barlow Bold Italic';text-align:center;letter-spacing:0px;text-anchor:middle;stroke-width:0.264583"
       id="path906"
       transform="matrix(0,-1.0000008,0.99999921,0,1.0714055e-7,-1.2507364e-6)" />
    <path
       d="m -88.168808,31.56977 q -0.385233,0 -0.614892,-0.214842 -0.225954,-0.218546 -0.225954,-0.581555 0,-0.06668 0.01111,-0.144462 l 0.09631,-0.792693 q 0.03334,-0.274108 0.1778,-0.485246 0.144462,-0.211138 0.370417,-0.325967 0.229658,-0.118533 0.511175,-0.118533 0.388938,0 0.614892,0.214842 0.229659,0.214841 0.229659,0.570442 0,0.07038 -0.01111,0.144462 l -0.09631,0.792693 q -0.03334,0.277813 -0.1778,0.492654 -0.144463,0.211138 -0.374121,0.329672 -0.229659,0.118533 -0.511176,0.118533 z m 0.05556,-0.448205 q 0.200025,0 0.333375,-0.129646 0.137054,-0.129645 0.166688,-0.344487 l 0.100012,-0.814918 q 0.0037,-0.02593 0.0037,-0.07779 0,-0.185209 -0.103716,-0.29263 -0.103717,-0.107421 -0.285221,-0.107421 -0.196321,0 -0.333376,0.13335 -0.137054,0.129646 -0.162983,0.344488 l -0.100013,0.814918 q -0.0037,0.02593 -0.0037,0.07779 0,0.181505 0.103717,0.288925 0.103717,0.107421 0.281517,0.107421 z"
       style="font-style:italic;font-variant:normal;font-weight:bold;font-stretch:normal;font-size:3.70417px;line-height:1.25;font-family:Barlow;-inkscape-font-specification:'Barlow Bold Italic';text-align:center;letter-spacing:0px;text-anchor:middle;stroke-width:0.264583"
       id="path908"
       transform="matrix(0,-1.0000008,0.99999921,0,1.0714055e-7,-1.2507364e-6)" />
    <path
       d="m -84.727646,31.529024 q -0.03334,0 -0.04445,-0.03334 l -0.322263,-1.026055 q -0.0074,-0.01482 -0.02223,-0.01482 h -0.333375 q -0.01852,0 -0.01852,0.01852 l -0.125942,1.011238 q -0.0037,0.01852 -0.01852,0.03334 -0.01111,0.01111 -0.02963,0.01111 h -0.422275 q -0.01852,0 -0.02963,-0.01111 -0.01111,-0.01482 -0.0074,-0.03334 l 0.307446,-2.504019 q 0.0037,-0.01852 0.01482,-0.02963 0.01482,-0.01482 0.03334,-0.01482 h 1.02976 q 0.314854,0 0.496358,0.1778 0.181505,0.1778 0.181505,0.477838 0,0.03704 -0.0074,0.125942 -0.02963,0.251884 -0.174096,0.433388 -0.144462,0.1778 -0.370417,0.251883 -0.02223,0.0074 -0.01482,0.02593 l 0.359304,1.04828 q 0.0037,0.0074 0.0037,0.01852 0,0.03334 -0.04075,0.03334 z m -0.592667,-2.144714 q -0.0074,0 -0.01482,0.0074 -0.0037,0.0037 -0.0037,0.01111 l -0.07779,0.633413 q 0,0.01852 0.01482,0.01852 h 0.47043 q 0.166687,0 0.277812,-0.103716 0.111126,-0.107421 0.111126,-0.274109 0,-0.13335 -0.0852,-0.211138 -0.08149,-0.08149 -0.218546,-0.08149 z"
       style="font-style:italic;font-variant:normal;font-weight:bold;font-stretch:normal;font-size:3.70417px;line-height:1.25;font-family:Barlow;-inkscape-font-specification:'Barlow Bold Italic';text-align:center;letter-spacing:0px;text-anchor:middle;stroke-width:0.264583"
       id="path910"
       transform="matrix(0,-1.0000008,0.99999921,0,1.0714055e-7,-1.2507364e-6)" />
    <path
       d="m -81.886549,29.33986 q -0.0037,0.01852 -0.01852,0.03334 -0.01111,0.01111 -0.02963,0.01111 h -1.181631 q -0.0074,0 -0.01482,0.0074 -0.0037,0.0037 -0.0037,0.01111 l -0.07038,0.574146 q 0,0.01852 0.01482,0.01852 h 0.774171 q 0.01852,0 0.02963,0.01482 0.01111,0.01111 0.0074,0.02963 l -0.04445,0.359304 q -0.0037,0.01852 -0.01852,0.03334 -0.01111,0.01111 -0.02963,0.01111 h -0.774172 q -0.01852,0 -0.01852,0.01852 l -0.07408,0.600076 q 0,0.01852 0.01482,0.01852 h 1.177926 q 0.04075,0 0.04075,0.04445 l -0.04445,0.359304 q -0.0037,0.01852 -0.01852,0.03334 -0.01111,0.01111 -0.02963,0.01111 h -1.663172 q -0.01852,0 -0.02963,-0.01111 -0.01111,-0.01482 -0.0074,-0.03334 l 0.307447,-2.504019 q 0.0037,-0.01852 0.01482,-0.02963 0.01482,-0.01482 0.03334,-0.01482 h 1.659468 q 0.01852,0 0.02963,0.01482 0.01482,0.01111 0.01111,0.02963 z"
       style="font-style:italic;font-variant:normal;font-weight:bold;font-stretch:normal;font-size:3.70417px;line-height:1.25;font-family:Barlow;-inkscape-font-specification:'Barlow Bold Italic';text-align:center;letter-spacing:0px;text-anchor:middle;stroke-width:0.264583"
       id="path912"
       transform="matrix(0,-1.0000008,0.99999921,0,1.0714055e-7,-1.2507364e-6)" />
    <path
       d="m -80.941989,31.558657 q -0.403754,0 -0.637117,-0.181504 -0.229658,-0.181504 -0.229658,-0.492654 0,-0.03334 0.0074,-0.100013 l 0.01111,-0.08149 q 0.0037,-0.01852 0.01482,-0.02963 0.01482,-0.01482 0.03334,-0.01482 h 0.411163 q 0.01852,0 0.02963,0.01482 0.01111,0.01111 0.0074,0.02963 l -0.0074,0.05556 q -0.01852,0.148167 0.100013,0.251883 0.122237,0.100013 0.348191,0.100013 0.207434,0 0.311151,-0.0926 0.107421,-0.0926 0.107421,-0.225955 0,-0.08149 -0.05556,-0.137054 -0.05186,-0.05556 -0.144462,-0.09631 -0.0889,-0.04445 -0.285222,-0.122238 -0.214841,-0.08149 -0.363008,-0.159279 -0.148167,-0.08149 -0.24818,-0.214842 -0.100012,-0.13335 -0.100012,-0.329671 0,-0.02593 0.0074,-0.0926 0.04075,-0.337079 0.307446,-0.5334 0.2667,-0.200025 0.659342,-0.200025 0.251884,0 0.444501,0.0889 0.196321,0.0852 0.300038,0.244475 0.107421,0.155575 0.107421,0.366713 0,0.02963 -0.0074,0.09631 l -0.0074,0.05556 q -0.0037,0.01852 -0.01852,0.03334 -0.01111,0.01111 -0.02963,0.01111 h -0.414867 q -0.01852,0 -0.02963,-0.01111 -0.01111,-0.01482 -0.0074,-0.03334 l 0.0037,-0.02963 q 0.01852,-0.155576 -0.0926,-0.262997 -0.107421,-0.111125 -0.325967,-0.111125 -0.181504,0 -0.288925,0.0852 -0.107421,0.08149 -0.107421,0.225955 0,0.08149 0.05186,0.137054 0.05186,0.05556 0.151871,0.103717 0.103717,0.04815 0.31115,0.129646 0.229659,0.0926 0.355601,0.159279 0.129646,0.06297 0.233362,0.192617 0.103717,0.129646 0.103717,0.325967 0,0.02593 -0.0074,0.0926 -0.04445,0.348192 -0.318559,0.551921 -0.270404,0.200025 -0.69268,0.200025 z"
       style="font-style:italic;font-variant:normal;font-weight:bold;font-stretch:normal;font-size:3.70417px;line-height:1.25;font-family:Barlow;-inkscape-font-specification:'Barlow Bold Italic';text-align:center;letter-spacing:0px;text-anchor:middle;stroke-width:0.264583"
       id="path914"
       transform="matrix(0,-1.0000008,0.99999921,0,1.0714055e-7,-1.2507364e-6)" />
    <path
       d="m -77.648983,29.33986 q -0.0037,0.01852 -0.01852,0.03334 -0.01111,0.01111 -0.02963,0.01111 h -1.181631 q -0.0074,0 -0.01482,0.0074 -0.0037,0.0037 -0.0037,0.01111 l -0.07038,0.574146 q 0,0.01852 0.01482,0.01852 h 0.774171 q 0.01852,0 0.02963,0.01482 0.01111,0.01111 0.0074,0.02963 l -0.04445,0.359304 q -0.0037,0.01852 -0.01852,0.03334 -0.01111,0.01111 -0.02963,0.01111 h -0.774172 q -0.01852,0 -0.01852,0.01852 l -0.07408,0.600076 q 0,0.01852 0.01482,0.01852 h 1.177926 q 0.04075,0 0.04075,0.04445 l -0.04445,0.359304 q -0.0037,0.01852 -0.01852,0.03334 -0.01111,0.01111 -0.02963,0.01111 h -1.663172 q -0.01852,0 -0.02963,-0.01111 -0.01111,-0.01482 -0.0074,-0.03334 l 0.307447,-2.504019 q 0.0037,-0.01852 0.01482,-0.02963 0.01482,-0.01482 0.03334,-0.01482 h 1.659468 q 0.01852,0 0.02963,0.01482 0.01482,0.01111 0.01111,0.02963 z"
       style="font-style:italic;font-variant:normal;font-weight:bold;font-stretch:normal;font-size:3.70417px;line-height:1.25;font-family:Barlow;-inkscape-font-specification:'Barlow Bold Italic';text-align:center;letter-spacing:0px;text-anchor:middle;stroke-width:0.264583"
       id="path916"
       transform="matrix(0,-1.0000008,0.99999921,0,1.0714055e-7,-1.2507364e-6)" />
    <path
       d="m -75.51168,28.936105 q 0.01852,0 0.02963,0.01482 0.01111,0.01111 0.0074,0.02963 l -0.04445,0.363009 q 0,0.01852 -0.01482,0.03334 -0.01482,0.01111 -0.03334,0.01111 h -0.640822 q -0.01482,0 -0.02223,0.01852 l -0.255588,2.078039 q -0.0037,0.01852 -0.01852,0.03334 -0.01111,0.01111 -0.02963,0.01111 h -0.418571 q -0.01852,0 -0.02963,-0.01111 -0.01111,-0.01482 -0.0074,-0.03334 l 0.251884,-2.078039 q 0.0074,-0.01852 -0.01482,-0.01852 h -0.626005 q -0.01852,0 -0.02963,-0.01111 -0.01111,-0.01482 -0.0074,-0.03334 l 0.04445,-0.363009 q 0.0037,-0.01852 0.01482,-0.02963 0.01482,-0.01482 0.03334,-0.01482 z"
       style="font-style:italic;font-variant:normal;font-weight:bold;font-stretch:normal;font-size:3.70417px;line-height:1.25;font-family:Barlow;-inkscape-font-specification:'Barlow Bold Italic';text-align:center;letter-spacing:0px;text-anchor:middle;stroke-width:0.264583"
       id="path918"
       transform="matrix(0,-1.0000008,0.99999921,0,1.0714055e-7,-1.2507364e-6)" />
  </g>
</svg>
