<?xml version="1.0" encoding="UTF-8" standalone="no"?>
<svg
   xmlns:dc="http://purl.org/dc/elements/1.1/"
   xmlns:cc="http://creativecommons.org/ns#"
   xmlns:rdf="http://www.w3.org/1999/02/22-rdf-syntax-ns#"
   xmlns:svg="http://www.w3.org/2000/svg"
   xmlns="http://www.w3.org/2000/svg"
   xmlns:sodipodi="http://sodipodi.sourceforge.net/DTD/sodipodi-0.dtd"
   xmlns:inkscape="http://www.inkscape.org/namespaces/inkscape"
   width="228"
   height="172"
   viewBox="0 0 60.325 45.508335"
   version="1.1"
   id="svg8"
   inkscape:version="1.0.2-2 (e86c870879, 2021-01-15)"
   sodipodi:docname="staton.svg">
  <defs
     id="defs2" />
  <sodipodi:namedview
     id="base"
     pagecolor="#ffffff"
     bordercolor="#666666"
     borderopacity="1.0"
     inkscape:pageopacity="0.0"
     inkscape:pageshadow="2"
     inkscape:zoom="1.4142136"
     inkscape:cx="53.571531"
     inkscape:cy="229.05788"
     inkscape:document-units="px"
     inkscape:current-layer="layer1"
     inkscape:document-rotation="0"
     showgrid="false"
     fit-margin-top="0"
     fit-margin-left="0"
     fit-margin-right="0"
     fit-margin-bottom="0"
     units="px"
     inkscape:window-width="1920"
     inkscape:window-height="1017"
     inkscape:window-x="-8"
     inkscape:window-y="-8"
     inkscape:window-maximized="1" />
  <metadata
     id="metadata5">
    <rdf:RDF>
      <cc:Work
         rdf:about="">
        <dc:format>image/svg+xml</dc:format>
        <dc:type
           rdf:resource="http://purl.org/dc/dcmitype/StillImage" />
        <dc:title></dc:title>
      </cc:Work>
    </rdf:RDF>
  </metadata>
  <g
     inkscape:label="Layer 1"
     inkscape:groupmode="layer"
     id="layer1"
     transform="translate(-28.956957,-94.347115)">
    <g
       aria-label="DOUBLE TAP TO RESET"
       transform="matrix(0,-1.0000008,0.99999921,0,0,0)"
       id="text853"
       style="font-style:italic;font-variant:normal;font-weight:bold;font-stretch:normal;font-size:3.70417px;line-height:1.25;font-family:Barlow;-inkscape-font-specification:'Barlow Bold Italic';text-align:center;letter-spacing:0px;text-anchor:middle;stroke-width:0.264583" />
    <g
       aria-label="CURRENT STATUS"
       id="text953"
       style="font-weight:bold;font-size:3.175px;line-height:1.25;font-family:'DM Sans';-inkscape-font-specification:'DM Sans Bold';text-align:center;letter-spacing:0px;text-anchor:middle;stroke-width:0.264583" />
    <rect
       style="fill:#000000;fill-opacity:1;stroke:none;stroke-width:0.999999;stroke-linecap:square"
       id="rect847-8"
       width="60.325001"
       height="45.508335"
       x="28.956957"
       y="94.347252" />
    <rect
       style="fill:#aaf683;fill-opacity:1;stroke:none;stroke-width:0.999999;stroke-linecap:square"
       id="rect849-8"
       width="56.091667"
       height="41.275002"
       x="31.073622"
       y="96.463921" />
    <path
       id="path955-3"
       style="font-style:italic;font-variant:normal;font-weight:bold;font-stretch:normal;font-size:3.175px;line-height:1.25;font-family:Barlow;-inkscape-font-specification:'Barlow Bold Italic';text-align:center;letter-spacing:0px;text-anchor:middle;fill:#c0c0c0;fill-opacity:1;stroke-width:0.264583"
       d="m 31.851871,94.347255 c -0.01573,0.007 -0.03325,0.01 -0.04858,0.0171 -0.129117,0.0635 -0.233759,0.15334 -0.314193,0.26975 -0.08043,0.11642 -0.130291,0.25068 -0.149345,0.40308 l -0.08888,0.73381 c -0.0043,0.0275 -0.0067,0.0665 -0.0067,0.1173 0,0.19897 0.06369,0.35741 0.190686,0.47594 0.04405,0.0411 0.0956,0.0728 0.150895,0.0997 h 0.757577 c 0.01315,-0.006 0.028,-0.008 0.04082,-0.014 0.129116,-0.0614 0.234276,-0.14774 0.31471,-0.25993 0.08043,-0.11218 0.128794,-0.24152 0.145727,-0.38757 0.0021,-0.0106 1.32e-4,-0.018 -0.0062,-0.0222 -0.0063,-0.006 -0.01473,-0.009 -0.02532,-0.009 l -0.358635,-0.016 c -0.02331,0 -0.03714,0.0113 -0.04134,0.0346 -0.01482,0.11007 -0.05924,0.19943 -0.133325,0.26717 -0.07408,0.0677 -0.166403,0.10128 -0.276469,0.10128 -0.101597,0 -0.181075,-0.0286 -0.238229,-0.0858 -0.05715,-0.0572 -0.08578,-0.13316 -0.08578,-0.22841 0,-0.0233 0.0015,-0.0416 0.0036,-0.0543 l 0.09508,-0.76481 c 0.0127,-0.11007 0.05614,-0.19892 0.130225,-0.26665 0.0762,-0.0699 0.169502,-0.10491 0.279569,-0.10491 0.09949,0 0.177464,0.0286 0.234611,0.0858 0.05927,0.0572 0.08888,0.13414 0.08888,0.23151 0,0.0233 -9.79e-4,0.0416 -0.0031,0.0543 -0.0042,0.0233 0.0042,0.0346 0.02532,0.0346 h 0.0062 l 0.362252,-0.0222 c 0.02331,-0.002 0.03714,-0.0135 0.04134,-0.0346 0.0042,-0.0466 0.0062,-0.0816 0.0062,-0.10491 0,-0.1905 -0.06467,-0.34303 -0.193787,-0.45733 -0.04243,-0.0382 -0.09185,-0.0676 -0.144693,-0.093 z m 1.473295,0 -0.1757,1.43299 c -0.0042,0.0508 -0.0062,0.0868 -0.0062,0.108 0,0.19897 0.06317,0.35741 0.190169,0.47594 0.04496,0.0413 0.09763,0.0728 0.15348,0.0997 h 0.747241 c 0.01567,-0.007 0.03337,-0.009 0.04858,-0.0171 0.129117,-0.0635 0.23376,-0.15235 0.314193,-0.26665 0.08043,-0.11641 0.130292,-0.24969 0.149345,-0.39997 l 0.1757,-1.43299 h -0.435116 l -0.1757,1.43609 c -0.01482,0.11218 -0.06023,0.20352 -0.136426,0.27337 -0.07408,0.0677 -0.164901,0.10128 -0.272851,0.10128 -0.09948,0 -0.177974,-0.0286 -0.235128,-0.0858 -0.05715,-0.0572 -0.08578,-0.13316 -0.08578,-0.22841 0,-0.0254 9.79e-4,-0.0456 0.0031,-0.0605 l 0.1757,-1.43609 z m 1.955953,0 -0.259416,2.11667 h 0.434599 l 0.105937,-0.85215 c 0,-0.0106 0.0054,-0.0155 0.01602,-0.0155 h 0.285771 c 0.0085,0 0.01492,0.004 0.01912,0.0124 l 0.268199,0.85525 h 0.456303 l -0.305408,-0.88987 c -0.0042,-0.0106 -2.91e-4,-0.018 0.0124,-0.0222 0.129117,-0.0423 0.23526,-0.11441 0.31781,-0.21601 0.08255,-0.10372 0.132412,-0.22762 0.149345,-0.37155 0.0043,-0.0508 0.0062,-0.0868 0.0062,-0.10801 0,-0.17145 -0.05183,-0.30767 -0.155546,-0.40927 -0.04401,-0.0431 -0.09629,-0.0749 -0.153995,-0.0997 z m 1.888774,0 -0.259416,2.11667 h 0.435115 l 0.105937,-0.85215 c 0,-0.0106 0.0054,-0.0155 0.01602,-0.0155 h 0.28577 c 0.0084,0 0.01434,0.004 0.0186,0.0124 l 0.268717,0.85525 h 0.455787 l -0.305408,-0.88987 c -0.0042,-0.0106 2.19e-4,-0.018 0.01292,-0.0222 0.129116,-0.0423 0.234742,-0.11441 0.317293,-0.21601 0.08255,-0.10372 0.132412,-0.22762 0.149345,-0.37155 0.0042,-0.0508 0.0062,-0.0868 0.0062,-0.10801 0,-0.17145 -0.05183,-0.30819 -0.155546,-0.40979 -0.04363,-0.0427 -0.09536,-0.0746 -0.152447,-0.0992 z m 1.88929,0 -0.259932,2.11667 h 1.498616 l 0.03617,-0.29353 c 0,-0.0254 -0.01134,-0.0377 -0.03462,-0.0377 h -1.009758 c -0.0085,0 -0.0124,-0.005 -0.0124,-0.016 l 0.06304,-0.51418 c 0,-0.0106 0.0054,-0.016 0.01602,-0.016 h 0.663523 c 0.0106,0 0.01899,-0.003 0.02532,-0.009 0.0085,-0.008 0.01388,-0.0184 0.01602,-0.0289 l 0.03824,-0.30799 c 0.0021,-0.0106 1.32e-4,-0.019 -0.0062,-0.0253 -0.0063,-0.008 -0.01474,-0.0124 -0.02532,-0.0124 H 39.40386 c -0.0085,0 -0.0124,-0.005 -0.0124,-0.016 l 0.06046,-0.49196 c 0,-0.004 9.79e-4,-0.008 0.0031,-0.01 0.0042,-0.004 0.0081,-0.006 0.0124,-0.006 h 1.012858 c 0.0106,0 0.01899,-0.003 0.02532,-0.009 0.0085,-0.008 0.01389,-0.0184 0.01602,-0.0289 l 0.03618,-0.29301 z m 1.800407,0 -0.259416,2.11667 h 0.434082 l 0.157614,-1.32499 c 0.0021,-0.008 0.0051,-0.0129 0.0093,-0.0129 0.0042,-0.002 0.0072,3.9e-4 0.0093,0.007 l 0.619082,1.33119 h 0.4439 l 0.259416,-2.11667 h -0.434599 l -0.157613,1.31878 c -0.0021,0.008 -0.0051,0.0139 -0.0093,0.016 -0.0042,0 -0.0072,-0.003 -0.0093,-0.01 l -0.615982,-1.32498 z m 1.949235,0 -0.03617,0.29611 c -0.0021,0.0106 -1.33e-4,0.0205 0.0062,0.0289 0.0063,0.006 0.01474,0.009 0.02532,0.009 h 0.536918 c 0.01267,0 0.0166,0.005 0.0124,0.016 l -0.213422,1.7663 h 0.431498 l 0.217041,-1.7663 c 0.0042,-0.0106 0.01065,-0.016 0.01912,-0.016 h 0.54932 c 0.01059,0 0.01995,-0.003 0.02842,-0.009 0.0085,-0.008 0.01292,-0.0183 0.01292,-0.0289 l 0.03617,-0.29611 z m 2.835486,0 c -0.05901,0.0255 -0.115455,0.0548 -0.166398,0.093 -0.152397,0.11218 -0.240263,0.26472 -0.26355,0.45733 -0.0043,0.0381 -0.0062,0.0648 -0.0062,0.0796 0,0.11218 0.02863,0.20595 0.08578,0.28215 0.05715,0.0762 0.127723,0.13792 0.21239,0.18448 0.08467,0.0445 0.188325,0.0899 0.311092,0.13643 0.112183,0.0444 0.193629,0.0795 0.24443,0.1049 0.05292,0.0233 0.09439,0.0504 0.124023,0.0822 0.03175,0.0318 0.04754,0.0712 0.04754,0.11782 0,0.0762 -0.0306,0.14087 -0.09198,0.19379 -0.05927,0.0529 -0.148117,0.0791 -0.26665,0.0791 -0.129117,0 -0.22884,-0.0286 -0.29869,-0.0858 -0.06774,-0.0593 -0.09585,-0.13134 -0.08526,-0.21601 l 0.0062,-0.0475 c 0.0021,-0.0106 1.32e-4,-0.019 -0.0062,-0.0253 -0.0063,-0.008 -0.01525,-0.0124 -0.02584,-0.0124 h -0.352434 c -0.01058,0 -0.01995,0.004 -0.02842,0.0124 -0.0063,0.006 -0.01027,0.0147 -0.0124,0.0253 l -0.0098,0.0698 c -0.0043,0.0381 -0.0062,0.0667 -0.0062,0.0858 0,0.1778 0.06565,0.31899 0.196887,0.42271 0.03931,0.0306 0.08406,0.0554 0.131776,0.077 h 0.836641 c 0.0614,-0.0255 0.119879,-0.0548 0.171566,-0.093 0.156633,-0.11642 0.247451,-0.27439 0.272851,-0.47336 0.0042,-0.0381 0.0062,-0.0643 0.0062,-0.0791 0,-0.11219 -0.02962,-0.20549 -0.08888,-0.27957 -0.05927,-0.0741 -0.125905,-0.12886 -0.199988,-0.16485 -0.07197,-0.0381 -0.173658,-0.084 -0.304891,-0.13694 -0.118533,-0.0466 -0.207384,-0.0836 -0.26665,-0.11111 -0.05715,-0.0275 -0.100592,-0.0571 -0.130225,-0.0889 -0.02963,-0.0318 -0.04444,-0.0707 -0.04444,-0.11731 0,-0.0826 0.03111,-0.14722 0.0925,-0.19378 0.06138,-0.0487 0.143814,-0.0729 0.24753,-0.0729 0.12488,0 0.217666,0.0316 0.279053,0.0951 0.0635,0.0614 0.09017,0.13641 0.07958,0.22531 l -0.0031,0.0258 c -0.0021,0.0106 -1.32e-4,0.0199 0.0062,0.0284 0.0063,0.006 0.01473,0.009 0.02532,0.009 h 0.356051 c 0.0106,0 0.01899,-0.003 0.02532,-0.009 0.0085,-0.008 0.01337,-0.0178 0.0155,-0.0284 l 0.0067,-0.0481 c 0.0042,-0.0381 0.0062,-0.0652 0.0062,-0.0822 0,-0.12065 -0.0306,-0.22581 -0.09198,-0.31471 -0.05855,-0.0899 -0.143524,-0.15862 -0.25373,-0.20722 z m 1.387512,0 -0.03617,0.29611 c -0.0021,0.0106 -1.32e-4,0.0205 0.0062,0.0289 0.0063,0.006 0.01473,0.009 0.02532,0.009 h 0.536918 c 0.01274,0 0.01667,0.005 0.0124,0.016 l -0.213939,1.7663 h 0.432015 l 0.217041,-1.7663 c 0.0042,-0.0106 0.01065,-0.016 0.01912,-0.016 h 0.548803 c 0.01058,0 0.02047,-0.003 0.02894,-0.009 0.0085,-0.008 0.0124,-0.0183 0.0124,-0.0289 l 0.03617,-0.29611 z m 2.256193,0 -0.917256,2.11667 h 0.465604 l 0.12144,-0.28991 c 0.0043,-0.008 0.0092,-0.0129 0.0155,-0.0129 h 0.759126 c 0.0042,0 0.0072,0.003 0.0093,0.007 0.0021,0.002 0.0031,0.004 0.0031,0.006 l 0.05064,0.28991 h 0.465604 l -0.394291,-2.11667 z m 1.134298,0 -0.03566,0.29611 c -0.0021,0.0106 -1.32e-4,0.0205 0.0062,0.0289 0.0063,0.006 0.01473,0.009 0.02532,0.009 h 0.536401 c 0.01267,0 0.01712,0.005 0.01292,0.016 l -0.213941,1.7663 h 0.432015 l 0.217041,-1.7663 c 0.0042,-0.0106 0.01065,-0.016 0.01912,-0.016 h 0.548804 c 0.01059,0 0.02047,-0.003 0.02894,-0.009 0.0085,-0.008 0.0124,-0.0183 0.0124,-0.0289 l 0.03617,-0.29611 z m 1.88619,0 -0.1757,1.43299 c -0.0042,0.0508 -0.0067,0.0868 -0.0067,0.108 0,0.19897 0.06369,0.35741 0.190686,0.47594 0.04495,0.0413 0.09763,0.0728 0.153479,0.0997 h 0.747241 c 0.01567,-0.007 0.03337,-0.009 0.04858,-0.0171 0.129117,-0.0635 0.233759,-0.15235 0.314193,-0.26665 0.08043,-0.11641 0.130291,-0.24969 0.149345,-0.39997 l 0.1757,-1.43299 h -0.435116 l -0.1757,1.43609 c -0.01482,0.11218 -0.06023,0.20352 -0.136426,0.27337 -0.07408,0.0677 -0.164901,0.10128 -0.272851,0.10128 -0.09948,0 -0.177975,-0.0286 -0.235128,-0.0858 -0.05715,-0.0572 -0.08578,-0.13316 -0.08578,-0.22841 0,-0.0254 9.79e-4,-0.0456 0.0031,-0.0605 l 0.1757,-1.43609 z m 2.273246,0 c -0.05901,0.0255 -0.115455,0.0548 -0.166398,0.093 -0.152403,0.11218 -0.24027,0.26472 -0.26355,0.45733 -0.0043,0.0381 -0.0062,0.0648 -0.0062,0.0796 0,0.11218 0.02863,0.20595 0.08578,0.28215 0.05715,0.0762 0.12824,0.13792 0.212907,0.18448 0.08467,0.0445 0.188325,0.0899 0.311092,0.13643 0.112183,0.0444 0.193629,0.0795 0.24443,0.1049 0.05292,0.0233 0.09387,0.0504 0.123506,0.0822 0.03175,0.0318 0.04806,0.0712 0.04806,0.11782 0,0.0762 -0.03111,0.14087 -0.0925,0.19379 -0.05927,0.0529 -0.148117,0.0791 -0.266651,0.0791 -0.129116,0 -0.228323,-0.0286 -0.298173,-0.0858 -0.06774,-0.0593 -0.09637,-0.13134 -0.08578,-0.21601 l 0.0062,-0.0475 c 0.0021,-0.0106 1.32e-4,-0.019 -0.0062,-0.0253 -0.0063,-0.008 -0.01474,-0.0124 -0.02532,-0.0124 H 54.05052 c -0.01058,0 -0.02047,0.004 -0.02894,0.0124 -0.0063,0.006 -0.01027,0.0147 -0.0124,0.0253 l -0.0098,0.0698 c -0.0043,0.0381 -0.0062,0.0667 -0.0062,0.0858 0,0.1778 0.06565,0.31899 0.196887,0.42271 0.03941,0.0307 0.08437,0.0554 0.132292,0.077 h 0.836124 c 0.0614,-0.0255 0.11988,-0.0548 0.171566,-0.093 0.156634,-0.11642 0.247452,-0.27439 0.272852,-0.47336 0.0042,-0.0381 0.0067,-0.0643 0.0067,-0.0791 0,-0.11219 -0.02962,-0.20549 -0.08888,-0.27957 -0.05927,-0.0741 -0.125906,-0.12886 -0.19999,-0.16485 -0.07197,-0.0381 -0.173657,-0.084 -0.304891,-0.13694 -0.118533,-0.0466 -0.207383,-0.0836 -0.26665,-0.11111 -0.05715,-0.0275 -0.100591,-0.0571 -0.130225,-0.0889 -0.02963,-0.0318 -0.04444,-0.0707 -0.04444,-0.11731 0,-0.0826 0.0306,-0.14722 0.09198,-0.19378 0.06138,-0.0487 0.143813,-0.0729 0.24753,-0.0729 0.12488,0 0.218183,0.0316 0.279569,0.0951 0.0635,0.0614 0.08965,0.13641 0.07906,0.22531 l -0.0031,0.0258 c -0.0021,0.0106 3.96e-4,0.0199 0.0067,0.0284 0.0063,0.006 0.01474,0.009 0.02532,0.009 h 0.355533 c 0.01061,0 0.019,-0.003 0.02532,-0.009 0.0084,-0.008 0.01389,-0.0178 0.01601,-0.0284 l 0.0062,-0.0481 c 0.0042,-0.0381 0.0062,-0.0652 0.0062,-0.0822 0,-0.12065 -0.0306,-0.22581 -0.09198,-0.31471 -0.05852,-0.0899 -0.143491,-0.15862 -0.253696,-0.20722 z m -18.892387,0.33125 h 0.406177 c 0.07832,0 0.141018,0.0232 0.187585,0.0698 0.04869,0.0445 0.07286,0.10467 0.07286,0.18087 0,0.0952 -0.03158,0.17374 -0.09508,0.23512 -0.0635,0.0593 -0.142978,0.0889 -0.238228,0.0889 h -0.403076 c -0.0085,0 -0.01292,-0.005 -0.01292,-0.016 l 0.06666,-0.5426 c 0,-0.004 9.79e-4,-0.008 0.0031,-0.01 0.0043,-0.004 0.0087,-0.006 0.01292,-0.006 z m 1.88929,0 h 0.406177 c 0.07832,0 0.141019,0.0232 0.187585,0.0698 0.04868,0.0445 0.07286,0.10467 0.07286,0.18087 0,0.0952 -0.03158,0.17374 -0.09508,0.23512 -0.0635,0.0593 -0.142979,0.0889 -0.238229,0.0889 h -0.403593 c -0.0085,0 -0.0124,-0.005 -0.0124,-0.016 l 0.06666,-0.5426 c 0,-0.004 9.79e-4,-0.008 0.0031,-0.01 0.0043,-0.004 0.0087,-0.006 0.01292,-0.006 z m 11.931572,0.16536 c 0.0042,-0.002 0.0072,8.4e-4 0.0093,0.009 l 0.162264,0.9431 c 0,0.0127 -0.0054,0.0191 -0.01602,0.0191 H 49.12265 c -0.0085,0 -0.01143,-0.006 -0.0093,-0.0191 l 0.387057,-0.9431 c 0.0021,-0.006 0.0056,-0.009 0.0098,-0.009 z" />
    <path
       d="m 48.089544,127.215 q -3.0861,0 -4.886325,-1.7145 -1.800225,-1.7145 -1.800225,-4.62915 0,-0.71438 0.05715,-1.11443 l 0.714375,-5.715 q 0.257175,-2.1717 1.400175,-3.82905 1.171575,-1.68592 2.9718,-2.60032 1.8288,-0.94298 4.05765,-0.94298 2.0574,0 3.571875,0.77153 1.514475,0.77152 2.314575,2.20027 0.828675,1.40018 0.828675,3.28613 0,0.74295 -0.05715,1.11442 l -0.6858,5.715 q -0.257175,2.22885 -1.42875,3.91478 -1.143,1.68592 -2.9718,2.6289 -1.8288,0.9144 -4.086225,0.9144 z m 0.485775,-4.05765 q 1.343025,0 2.257425,-0.88583 0.942975,-0.9144 1.114425,-2.37172 l 0.74295,-5.91503 q 0.02857,-0.17145 0.02857,-0.51435 0,-1.2573 -0.714375,-2.00025 -0.6858,-0.74295 -1.88595,-0.74295 -1.31445,0 -2.257425,0.9144 -0.9144,0.88583 -1.08585,2.34315 l -0.714375,5.91503 q -0.02857,0.20002 -0.02857,0.5715 0,1.2573 0.6858,1.97167 0.6858,0.71438 1.857375,0.71438 z"
       style="font-style:italic;font-variant:normal;font-weight:800;font-stretch:normal;font-size:28.575px;line-height:1.25;font-family:Barlow;-inkscape-font-specification:'Barlow Ultra-Bold Italic';text-align:center;letter-spacing:0px;text-anchor:middle;fill:#49bd00;fill-opacity:1;stroke-width:0.264583"
       id="path1070" />
    <path
       d="m 71.521024,107.24107 q 0.02858,-0.14287 0.1143,-0.2286 0.1143,-0.1143 0.257175,-0.1143 h 3.94335 q 0.142875,0 0.2286,0.1143 0.08573,0.0857 0.05715,0.2286 l -2.371725,19.3167 q -0.02858,0.14288 -0.142875,0.25718 -0.08572,0.0857 -0.2286,0.0857 h -3.7719 q -0.28575,0 -0.371475,-0.2286 L 64.205823,115.7564 q -0.05715,-0.0857 -0.1143,-0.0572 -0.05715,0 -0.05715,0.1143 l -1.285875,10.7442 q -0.02857,0.14288 -0.142875,0.25718 -0.08573,0.0857 -0.2286,0.0857 h -3.94335 q -0.142875,0 -0.2286,-0.0857 -0.08572,-0.1143 -0.05715,-0.25718 l 2.371725,-19.3167 q 0,-0.14287 0.1143,-0.2286 0.1143,-0.1143 0.257175,-0.1143 h 3.800475 q 0.257175,0 0.3429,0.2286 l 5.029201,10.88708 q 0.02858,0.0857 0.08572,0.0857 0.05715,-0.0286 0.08573,-0.14287 z"
       style="font-style:italic;font-variant:normal;font-weight:800;font-stretch:normal;font-size:28.575px;line-height:1.25;font-family:Barlow;-inkscape-font-specification:'Barlow Ultra-Bold Italic';text-align:center;letter-spacing:0px;text-anchor:middle;fill:#49bd00;fill-opacity:1;stroke-width:0.264583"
       id="path1072" />
  </g>
</svg>
