<?xml version="1.0" encoding="UTF-8" standalone="no"?>
<svg
   xmlns:dc="http://purl.org/dc/elements/1.1/"
   xmlns:cc="http://creativecommons.org/ns#"
   xmlns:rdf="http://www.w3.org/1999/02/22-rdf-syntax-ns#"
   xmlns:svg="http://www.w3.org/2000/svg"
   xmlns="http://www.w3.org/2000/svg"
   xmlns:sodipodi="http://sodipodi.sourceforge.net/DTD/sodipodi-0.dtd"
   xmlns:inkscape="http://www.inkscape.org/namespaces/inkscape"
   width="228"
   height="172"
   viewBox="0 0 60.325 45.508335"
   version="1.1"
   id="svg8"
   inkscape:version="1.0.2-2 (e86c870879, 2021-01-15)"
   sodipodi:docname="statoff.svg">
  <defs
     id="defs2" />
  <sodipodi:namedview
     id="base"
     pagecolor="#ffffff"
     bordercolor="#666666"
     borderopacity="1.0"
     inkscape:pageopacity="0.0"
     inkscape:pageshadow="2"
     inkscape:zoom="1.4142136"
     inkscape:cx="53.571531"
     inkscape:cy="229.05788"
     inkscape:document-units="px"
     inkscape:current-layer="layer1"
     inkscape:document-rotation="0"
     showgrid="false"
     fit-margin-top="0"
     fit-margin-left="0"
     fit-margin-right="0"
     fit-margin-bottom="0"
     units="px"
     inkscape:window-width="1920"
     inkscape:window-height="1017"
     inkscape:window-x="-8"
     inkscape:window-y="-8"
     inkscape:window-maximized="1" />
  <metadata
     id="metadata5">
    <rdf:RDF>
      <cc:Work
         rdf:about="">
        <dc:format>image/svg+xml</dc:format>
        <dc:type
           rdf:resource="http://purl.org/dc/dcmitype/StillImage" />
        <dc:title></dc:title>
      </cc:Work>
    </rdf:RDF>
  </metadata>
  <g
     inkscape:label="Layer 1"
     inkscape:groupmode="layer"
     id="layer1"
     transform="translate(-28.956957,-94.347115)">
    <rect
       style="fill:#000000;fill-opacity:1;stroke:none;stroke-width:0.999999;stroke-linecap:square"
       id="rect847"
       width="60.325001"
       height="45.508335"
       x="28.956957"
       y="94.347115" />
    <rect
       style="fill:#a4243b;fill-opacity:1;stroke:none;stroke-width:0.999999;stroke-linecap:square"
       id="rect849"
       width="56.091667"
       height="41.275002"
       x="31.073624"
       y="96.463783" />
    <g
       aria-label="DOUBLE TAP TO RESET"
       transform="matrix(0,-1.0000008,0.99999921,0,0,0)"
       id="text853"
       style="font-style:italic;font-variant:normal;font-weight:bold;font-stretch:normal;font-size:3.70417px;line-height:1.25;font-family:Barlow;-inkscape-font-specification:'Barlow Bold Italic';text-align:center;letter-spacing:0px;text-anchor:middle;stroke-width:0.264583" />
    <g
       aria-label="CURRENT STATUS"
       id="text953"
       style="font-weight:bold;font-size:3.175px;line-height:1.25;font-family:'DM Sans';-inkscape-font-specification:'DM Sans Bold';text-align:center;letter-spacing:0px;text-anchor:middle;stroke-width:0.264583" />
    <path
       id="path955"
       style="font-style:italic;font-variant:normal;font-weight:bold;font-stretch:normal;font-size:3.175px;line-height:1.25;font-family:Barlow;-inkscape-font-specification:'Barlow Bold Italic';text-align:center;letter-spacing:0px;text-anchor:middle;fill:#c0c0c0;fill-opacity:1;stroke-width:0.999999"
       d="M 10.941406 0 C 10.881937 0.025137413 10.815733 0.035967799 10.757812 0.064453125 C 10.269813 0.30445312 9.8743125 0.64398432 9.5703125 1.0839844 C 9.2663251 1.5239844 9.077872 2.0314219 9.0058594 2.6074219 L 8.6699219 5.3808594 C 8.6537959 5.4848594 8.6445314 5.6322186 8.6445312 5.8242188 C 8.6445312 6.5762187 8.8852344 7.1750469 9.3652344 7.6230469 C 9.5317371 7.7784494 9.7265715 7.8982163 9.9355469 8 L 12.798828 8 C 12.848513 7.9789054 12.904648 7.9706975 12.953125 7.9472656 C 13.441122 7.7152656 13.838578 7.3888437 14.142578 6.9648438 C 14.446578 6.5408436 14.629359 6.052 14.693359 5.5 C 14.701422 5.4598866 14.693859 5.4318896 14.669922 5.4160156 C 14.645934 5.3920786 14.614231 5.3808594 14.574219 5.3808594 L 13.21875 5.3203125 C 13.130637 5.3203125 13.078374 5.3631593 13.0625 5.4511719 C 13.0065 5.8671719 12.838594 6.2049375 12.558594 6.4609375 C 12.278594 6.7169375 11.929672 6.84375 11.513672 6.84375 C 11.129684 6.84375 10.829294 6.7355188 10.613281 6.5195312 C 10.397269 6.3035313 10.289062 6.01625 10.289062 5.65625 C 10.289062 5.5682374 10.294671 5.4991719 10.302734 5.4511719 L 10.662109 2.5605469 C 10.710109 2.1445469 10.874297 1.8087344 11.154297 1.5527344 C 11.442297 1.2887344 11.794936 1.15625 12.210938 1.15625 C 12.58695 1.15625 12.881669 1.264456 13.097656 1.4804688 C 13.321656 1.6964687 13.433594 1.9874686 13.433594 2.3554688 C 13.433594 2.4434561 13.429938 2.5125469 13.421875 2.5605469 C 13.405875 2.6485595 13.437578 2.6914064 13.517578 2.6914062 L 13.541016 2.6914062 L 14.910156 2.6074219 C 14.99827 2.5994093 15.050532 2.5565625 15.066406 2.4765625 C 15.08228 2.3005751 15.089844 2.1680907 15.089844 2.0800781 C 15.089844 1.3600781 14.845422 0.78356249 14.357422 0.3515625 C 14.197074 0.2072496 14.010288 0.096169099 13.810547 0 L 10.941406 0 z M 16.509766 0 L 15.845703 5.4160156 C 15.829829 5.6080156 15.822266 5.7442186 15.822266 5.8242188 C 15.822266 6.5762187 16.061016 7.1750469 16.541016 7.6230469 C 16.710919 7.779024 16.910019 7.8980391 17.121094 8 L 19.945312 8 C 20.004532 7.9746724 20.071438 7.9642811 20.128906 7.9355469 C 20.616906 7.6955469 21.012406 7.3597344 21.316406 6.9277344 C 21.620394 6.4877344 21.808847 5.9840156 21.880859 5.4160156 L 22.544922 0 L 20.900391 0 L 20.236328 5.4277344 C 20.180328 5.8517344 20.008703 6.1969375 19.720703 6.4609375 C 19.440703 6.7169375 19.097453 6.84375 18.689453 6.84375 C 18.313466 6.84375 18.016794 6.7355188 17.800781 6.5195312 C 17.584794 6.3035313 17.476562 6.01625 17.476562 5.65625 C 17.476562 5.56025 17.480218 5.483747 17.488281 5.4277344 L 18.152344 0 L 16.509766 0 z M 23.902344 0 L 22.921875 8 L 24.564453 8 L 24.964844 4.7792969 C 24.964844 4.7393095 24.985378 4.7207031 25.025391 4.7207031 L 26.105469 4.7207031 C 26.137595 4.7207031 26.16186 4.7355781 26.177734 4.7675781 L 27.191406 8 L 28.916016 8 L 27.761719 4.6367188 C 27.745719 4.5966052 27.760594 4.5686084 27.808594 4.5527344 C 28.296594 4.3927344 28.697766 4.1203281 29.009766 3.7363281 C 29.321766 3.3443281 29.510219 2.8760314 29.574219 2.3320312 C 29.590345 2.1400313 29.597656 2.0038281 29.597656 1.9238281 C 29.597656 1.2758281 29.401766 0.76095314 29.009766 0.37695312 C 28.843411 0.21399372 28.645836 0.093839396 28.427734 0 L 23.902344 0 z M 31.041016 0 L 30.060547 8 L 31.705078 8 L 32.105469 4.7792969 C 32.105469 4.7393095 32.126003 4.7207031 32.166016 4.7207031 L 33.246094 4.7207031 C 33.277968 4.7207031 33.30028 4.7355781 33.316406 4.7675781 L 34.332031 8 L 36.054688 8 L 34.900391 4.6367188 C 34.884391 4.5966052 34.901219 4.5686084 34.949219 4.5527344 C 35.437219 4.3927344 35.836436 4.1203281 36.148438 3.7363281 C 36.460437 3.3443281 36.648891 2.8760314 36.712891 2.3320312 C 36.728765 2.1400313 36.736328 2.0038281 36.736328 1.9238281 C 36.736328 1.2758281 36.540437 0.75899999 36.148438 0.375 C 35.983527 0.21345535 35.788027 0.093219314 35.572266 0 L 31.041016 0 z M 38.181641 0 L 37.199219 8 L 42.863281 8 L 43 6.890625 C 43 6.794625 42.957153 6.7480469 42.869141 6.7480469 L 39.052734 6.7480469 C 39.020734 6.7480469 39.005859 6.7274874 39.005859 6.6875 L 39.244141 4.7441406 C 39.244141 4.7041532 39.264673 4.6835936 39.304688 4.6835938 L 41.8125 4.6835938 C 41.852563 4.6835938 41.884266 4.6723745 41.908203 4.6484375 C 41.940153 4.6164123 41.960687 4.5790499 41.96875 4.5390625 L 42.113281 3.375 C 42.121344 3.334937 42.113781 3.3032339 42.089844 3.2792969 C 42.065856 3.2472969 42.034153 3.2324219 41.994141 3.2324219 L 39.484375 3.2324219 C 39.452375 3.2324219 39.4375 3.2118876 39.4375 3.171875 L 39.666016 1.3125 C 39.666016 1.296626 39.669671 1.2834536 39.677734 1.2753906 C 39.693608 1.2595166 39.708483 1.2519531 39.724609 1.2519531 L 43.552734 1.2519531 C 43.592797 1.2519531 43.624498 1.2407339 43.648438 1.2167969 C 43.680387 1.1847717 43.700921 1.1474093 43.708984 1.1074219 L 43.845703 0 L 38.181641 0 z M 44.986328 0 L 44.005859 8 L 45.646484 8 L 46.242188 2.9921875 C 46.25025 2.9601875 46.26147 2.9433594 46.277344 2.9433594 C 46.293218 2.9352964 46.304437 2.944813 46.3125 2.96875 L 48.652344 8 L 50.330078 8 L 51.310547 0 L 49.667969 0 L 49.072266 4.984375 C 49.064203 5.0162994 49.052983 5.0368589 49.037109 5.0449219 C 49.021235 5.0449219 49.010016 5.0317495 49.001953 5.0078125 L 46.673828 0 L 44.986328 0 z M 52.353516 0 L 52.216797 1.1191406 C 52.208986 1.1591532 52.216297 1.1965156 52.240234 1.2285156 C 52.264222 1.2524526 52.295923 1.2636719 52.335938 1.2636719 L 54.365234 1.2636719 C 54.413108 1.2636719 54.427983 1.2842311 54.412109 1.3242188 L 53.605469 8 L 55.236328 8 L 56.056641 1.3242188 C 56.072641 1.2842311 56.096906 1.2636719 56.128906 1.2636719 L 58.205078 1.2636719 C 58.245091 1.2636719 58.2805 1.2524526 58.3125 1.2285156 C 58.3445 1.1964904 58.361328 1.159128 58.361328 1.1191406 L 58.498047 0 L 52.353516 0 z M 63.070312 0 C 62.847274 0.096199552 62.633946 0.20715798 62.441406 0.3515625 C 61.865419 0.77556249 61.533327 1.3520781 61.445312 2.0800781 C 61.429187 2.2240529 61.421875 2.3248468 61.421875 2.3808594 C 61.421875 2.8048594 61.530081 3.1592656 61.746094 3.4472656 C 61.962094 3.7352656 62.228828 3.9685313 62.548828 4.1445312 C 62.868828 4.3125314 63.260609 4.4841563 63.724609 4.6601562 C 64.148609 4.8281564 64.456436 4.9606406 64.648438 5.0566406 C 64.848437 5.144628 65.005186 5.2471749 65.117188 5.3671875 C 65.237175 5.4871875 65.296875 5.6365 65.296875 5.8125 C 65.296875 6.1005126 65.181231 6.3449345 64.949219 6.5449219 C 64.725219 6.7449093 64.389406 6.84375 63.941406 6.84375 C 63.453406 6.84375 63.0765 6.7355188 62.8125 6.5195312 C 62.556475 6.2955313 62.450222 6.023125 62.490234 5.703125 L 62.513672 5.5234375 C 62.521483 5.4833745 62.514171 5.4516714 62.490234 5.4277344 C 62.466247 5.3957344 62.432591 5.3808594 62.392578 5.3808594 L 61.060547 5.3808594 C 61.020559 5.3808594 60.985125 5.3957344 60.953125 5.4277344 C 60.929188 5.4517218 60.914313 5.4834249 60.90625 5.5234375 L 60.869141 5.7871094 C 60.853015 5.9311094 60.845703 6.0393155 60.845703 6.1113281 C 60.845703 6.7833281 61.093844 7.3169844 61.589844 7.7089844 C 61.738412 7.8245377 61.907529 7.9185228 62.087891 8 L 65.25 8 C 65.482073 7.9037668 65.703086 7.7929435 65.898438 7.6484375 C 66.490437 7.2084375 66.833686 6.611375 66.929688 5.859375 C 66.945562 5.715375 66.953125 5.6165343 66.953125 5.5605469 C 66.953125 5.1365469 66.841187 4.7839064 66.617188 4.5039062 C 66.393186 4.2239189 66.141328 4.016872 65.861328 3.8808594 C 65.589328 3.7368468 65.204984 3.5632688 64.708984 3.3632812 C 64.260984 3.1872687 63.925172 3.0473468 63.701172 2.9433594 C 63.485172 2.839372 63.320984 2.7274345 63.208984 2.6074219 C 63.096984 2.4874219 63.041016 2.3400625 63.041016 2.1640625 C 63.041016 1.8520625 63.158612 1.6076406 63.390625 1.4316406 C 63.622625 1.247628 63.934172 1.15625 64.326172 1.15625 C 64.798159 1.15625 65.148847 1.275625 65.380859 1.515625 C 65.620859 1.747625 65.721653 2.0311875 65.681641 2.3671875 L 65.669922 2.4648438 C 65.662111 2.5048563 65.669422 2.5402656 65.693359 2.5722656 C 65.717347 2.5962026 65.74905 2.6074219 65.789062 2.6074219 L 67.134766 2.6074219 C 67.174829 2.6074219 67.206532 2.5962026 67.230469 2.5722656 C 67.262418 2.5402656 67.281 2.5048563 67.289062 2.4648438 L 67.314453 2.2832031 C 67.330327 2.1392031 67.337891 2.0366564 67.337891 1.9726562 C 67.337891 1.5166563 67.222222 1.1192031 66.990234 0.78320312 C 66.768933 0.44335914 66.447778 0.1836767 66.03125 0 L 63.070312 0 z M 68.314453 0 L 68.177734 1.1191406 C 68.169671 1.1591532 68.177235 1.1965156 68.201172 1.2285156 C 68.225159 1.2524526 68.256862 1.2636719 68.296875 1.2636719 L 70.326172 1.2636719 C 70.374298 1.2636719 70.389173 1.2842311 70.373047 1.3242188 L 69.564453 8 L 71.197266 8 L 72.017578 1.3242188 C 72.033578 1.2842311 72.057844 1.2636719 72.089844 1.2636719 L 74.164062 1.2636719 C 74.204052 1.2636719 74.241436 1.2524526 74.273438 1.2285156 C 74.305437 1.1964904 74.320314 1.159128 74.320312 1.1191406 L 74.457031 0 L 68.314453 0 z M 76.841797 0 L 73.375 8 L 75.134766 8 L 75.59375 6.9042969 C 75.609826 6.8722969 75.628407 6.8554686 75.652344 6.8554688 L 78.521484 6.8554688 C 78.537358 6.8554685 78.548578 6.8649854 78.556641 6.8808594 C 78.564704 6.8886704 78.568359 6.8962339 78.568359 6.9042969 L 78.759766 8 L 80.519531 8 L 79.029297 0 L 76.841797 0 z M 81.128906 0 L 80.994141 1.1191406 C 80.98633 1.1591532 80.993641 1.1965156 81.017578 1.2285156 C 81.041566 1.2524526 81.073269 1.2636719 81.113281 1.2636719 L 83.140625 1.2636719 C 83.188499 1.2636719 83.205327 1.2842311 83.189453 1.3242188 L 82.380859 8 L 84.013672 8 L 84.833984 1.3242188 C 84.849984 1.2842311 84.87425 1.2636719 84.90625 1.2636719 L 86.980469 1.2636719 C 87.020481 1.2636719 87.057844 1.2524526 87.089844 1.2285156 C 87.121844 1.1964904 87.136719 1.159128 87.136719 1.1191406 L 87.273438 0 L 81.128906 0 z M 88.257812 0 L 87.59375 5.4160156 C 87.577876 5.6080156 87.568359 5.7442186 87.568359 5.8242188 C 87.568359 6.5762187 87.809063 7.1750469 88.289062 7.6230469 C 88.458967 7.779024 88.658066 7.8980391 88.869141 8 L 91.693359 8 C 91.752578 7.9746724 91.819485 7.9642811 91.876953 7.9355469 C 92.364953 7.6955469 92.760453 7.3597344 93.064453 6.9277344 C 93.368441 6.4877344 93.556894 5.9840156 93.628906 5.4160156 L 94.292969 0 L 92.648438 0 L 91.984375 5.4277344 C 91.928375 5.8517344 91.75675 6.1969375 91.46875 6.4609375 C 91.18875 6.7169375 90.8455 6.84375 90.4375 6.84375 C 90.061513 6.84375 89.764841 6.7355188 89.548828 6.5195312 C 89.332841 6.3035313 89.224609 6.01625 89.224609 5.65625 C 89.224609 5.56025 89.228265 5.483747 89.236328 5.4277344 L 89.900391 0 L 88.257812 0 z M 96.849609 0 C 96.626571 0.096199552 96.413242 0.20715798 96.220703 0.3515625 C 95.644691 0.77556249 95.312597 1.3520781 95.224609 2.0800781 C 95.208483 2.2240529 95.201172 2.3248468 95.201172 2.3808594 C 95.201172 2.8048594 95.309378 3.1592656 95.525391 3.4472656 C 95.741391 3.7352656 96.010078 3.9685313 96.330078 4.1445312 C 96.650078 4.3125314 97.041859 4.4841563 97.505859 4.6601562 C 97.929859 4.8281564 98.237686 4.9606406 98.429688 5.0566406 C 98.629687 5.144628 98.784484 5.2471749 98.896484 5.3671875 C 99.016472 5.4871875 99.078125 5.6365 99.078125 5.8125 C 99.078125 6.1005126 98.960528 6.3449345 98.728516 6.5449219 C 98.504516 6.7449093 98.168703 6.84375 97.720703 6.84375 C 97.232703 6.84375 96.85775 6.7355188 96.59375 6.5195312 C 96.337725 6.2955313 96.229519 6.023125 96.269531 5.703125 L 96.292969 5.5234375 C 96.301032 5.4833745 96.293468 5.4516714 96.269531 5.4277344 C 96.245544 5.3957344 96.213841 5.3808594 96.173828 5.3808594 L 94.841797 5.3808594 C 94.801809 5.3808594 94.764422 5.3957344 94.732422 5.4277344 C 94.708485 5.4517218 94.69361 5.4834249 94.685547 5.5234375 L 94.648438 5.7871094 C 94.63231 5.9311094 94.625 6.0393155 94.625 6.1113281 C 94.625 6.7833281 94.873141 7.3169844 95.369141 7.7089844 C 95.518075 7.8248221 95.688016 7.9184063 95.869141 8 L 99.029297 8 C 99.26137 7.9037668 99.482384 7.7929435 99.677734 7.6484375 C 100.26973 7.2084375 100.61298 6.611375 100.70898 5.859375 C 100.72486 5.715375 100.73438 5.6165343 100.73438 5.5605469 C 100.73438 5.1365469 100.62244 4.7839064 100.39844 4.5039062 C 100.17444 4.2239189 99.922578 4.016872 99.642578 3.8808594 C 99.370578 3.7368468 98.986234 3.5632688 98.490234 3.3632812 C 98.042234 3.1872687 97.706422 3.0473468 97.482422 2.9433594 C 97.266422 2.839372 97.102234 2.7274345 96.990234 2.6074219 C 96.878234 2.4874219 96.822266 2.3400625 96.822266 2.1640625 C 96.822266 1.8520625 96.937909 1.6076406 97.169922 1.4316406 C 97.401922 1.247628 97.713469 1.15625 98.105469 1.15625 C 98.577456 1.15625 98.930097 1.275625 99.162109 1.515625 C 99.402109 1.747625 99.50095 2.0311875 99.460938 2.3671875 L 99.449219 2.4648438 C 99.441408 2.5048563 99.450672 2.5402656 99.474609 2.5722656 C 99.498597 2.5962026 99.5303 2.6074219 99.570312 2.6074219 L 100.91406 2.6074219 C 100.95413 2.6074219 100.98583 2.5962026 101.00977 2.5722656 C 101.04172 2.5402656 101.06225 2.5048563 101.07031 2.4648438 L 101.09375 2.2832031 C 101.10962 2.1392031 101.11719 2.0366564 101.11719 1.9726562 C 101.11719 1.5166563 101.00154 1.1192031 100.76953 0.78320312 C 100.54823 0.44335914 100.22707 0.1836767 99.810547 0 L 96.849609 0 z M 25.445312 1.2519531 L 26.980469 1.2519531 C 27.276469 1.2519531 27.513453 1.339625 27.689453 1.515625 C 27.873466 1.683625 27.964844 1.9112186 27.964844 2.1992188 C 27.964844 2.5592061 27.845469 2.855878 27.605469 3.0878906 C 27.365469 3.3118906 27.065078 3.4238281 26.705078 3.4238281 L 25.181641 3.4238281 C 25.149641 3.4238281 25.132812 3.4032689 25.132812 3.3632812 L 25.384766 1.3125 C 25.384766 1.296626 25.388421 1.2834536 25.396484 1.2753906 C 25.41261 1.2595166 25.429438 1.2519531 25.445312 1.2519531 z M 32.585938 1.2519531 L 34.121094 1.2519531 C 34.417094 1.2519531 34.654078 1.339625 34.830078 1.515625 C 35.014066 1.683625 35.105469 1.9112186 35.105469 2.1992188 C 35.105469 2.5592061 34.986094 2.855878 34.746094 3.0878906 C 34.506094 3.3118906 34.205703 3.4238281 33.845703 3.4238281 L 32.320312 3.4238281 C 32.288313 3.4238281 32.273438 3.4032689 32.273438 3.3632812 L 32.525391 1.3125 C 32.525391 1.296626 32.529046 1.2834536 32.537109 1.2753906 C 32.553235 1.2595166 32.570061 1.2519531 32.585938 1.2519531 z M 77.681641 1.8769531 C 77.697515 1.8688901 77.708734 1.8801094 77.716797 1.9121094 L 78.330078 5.4765625 C 78.330078 5.5245625 78.309544 5.5488281 78.269531 5.5488281 L 76.216797 5.5488281 C 76.184797 5.5488281 76.173578 5.5245625 76.181641 5.4765625 L 77.644531 1.9121094 C 77.652594 1.8881724 77.665767 1.8769531 77.681641 1.8769531 z "
       transform="matrix(0.26458334,0,0,0.26458334,28.956957,94.347115)" />
    <path
       d="m 41.831619,127.21487 q -3.0861,0 -4.886325,-1.7145 -1.800225,-1.7145 -1.800225,-4.62915 0,-0.71438 0.05715,-1.11443 l 0.714375,-5.715 q 0.257175,-2.1717 1.400175,-3.82905 1.171575,-1.68592 2.9718,-2.60032 1.8288,-0.94298 4.05765,-0.94298 2.0574,0 3.571875,0.77153 1.514475,0.77152 2.314575,2.20027 0.828675,1.40018 0.828675,3.28613 0,0.74295 -0.05715,1.11442 l -0.6858,5.715 q -0.257175,2.22885 -1.42875,3.91478 -1.143,1.68592 -2.9718,2.6289 -1.8288,0.9144 -4.086225,0.9144 z m 0.485775,-4.05765 q 1.343025,0 2.257425,-0.88583 0.942975,-0.9144 1.114425,-2.37172 l 0.74295,-5.91503 q 0.02857,-0.17145 0.02857,-0.51435 0,-1.2573 -0.714375,-2.00025 -0.6858,-0.74295 -1.88595,-0.74295 -1.31445,0 -2.257425,0.9144 -0.9144,0.88583 -1.08585,2.34315 l -0.714375,5.91503 q -0.02857,0.20002 -0.02857,0.5715 0,1.2573 0.6858,1.97167 0.6858,0.71438 1.857375,0.71438 z"
       style="font-style:italic;font-variant:normal;font-weight:800;font-stretch:normal;font-size:28.575px;line-height:1.25;font-family:Barlow;-inkscape-font-specification:'Barlow Ultra-Bold Italic';text-align:center;letter-spacing:0px;text-anchor:middle;fill:#770015;fill-opacity:1;stroke-width:0.264583"
       id="path1060" />
    <path
       d="m 67.577674,110.61279 q -0.02858,0.14288 -0.142875,0.25718 -0.08572,0.0857 -0.2286,0.0857 h -8.658226 q -0.17145,0 -0.17145,0.14288 l -0.428625,3.51472 q 0,0.14288 0.1143,0.14288 h 5.572126 q 0.142875,0 0.2286,0.1143 0.08573,0.0857 0.05715,0.2286 l -0.40005,3.34327 q -0.02857,0.14288 -0.142875,0.25718 -0.08573,0.0857 -0.2286,0.0857 h -5.572126 q -0.1143,0 -0.17145,0.14288 l -0.9144,7.62952 q -0.02857,0.14288 -0.142875,0.25718 -0.08573,0.0857 -0.2286,0.0857 h -3.94335 q -0.142875,0 -0.2286,-0.0857 -0.08572,-0.1143 -0.05715,-0.25718 l 2.371725,-19.3167 q 0,-0.14287 0.1143,-0.2286 0.1143,-0.1143 0.257175,-0.1143 h 13.087351 q 0.142875,0 0.2286,0.1143 0.08572,0.0857 0.05715,0.2286 z"
       style="font-style:italic;font-variant:normal;font-weight:800;font-stretch:normal;font-size:28.575px;line-height:1.25;font-family:Barlow;-inkscape-font-specification:'Barlow Ultra-Bold Italic';text-align:center;letter-spacing:0px;text-anchor:middle;fill:#770015;fill-opacity:1;stroke-width:0.264583"
       id="path1062" />
    <path
       d="m 83.008147,110.61279 q -0.02857,0.14288 -0.142875,0.25718 -0.08573,0.0857 -0.2286,0.0857 h -8.658225 q -0.17145,0 -0.17145,0.14288 l -0.428625,3.51472 q 0,0.14288 0.1143,0.14288 h 5.572125 q 0.142875,0 0.2286,0.1143 0.08572,0.0857 0.05715,0.2286 l -0.40005,3.34327 q -0.02858,0.14288 -0.142875,0.25718 -0.08572,0.0857 -0.2286,0.0857 h -5.572125 q -0.1143,0 -0.17145,0.14288 l -0.9144,7.62952 q -0.02858,0.14288 -0.142875,0.25718 -0.08572,0.0857 -0.2286,0.0857 h -3.94335 q -0.142875,0 -0.2286,-0.0857 -0.08572,-0.1143 -0.05715,-0.25718 l 2.371725,-19.3167 q 0,-0.14287 0.1143,-0.2286 0.1143,-0.1143 0.257175,-0.1143 h 13.08735 q 0.142875,0 0.2286,0.1143 0.08572,0.0857 0.05715,0.2286 z"
       style="font-style:italic;font-variant:normal;font-weight:800;font-stretch:normal;font-size:28.575px;line-height:1.25;font-family:Barlow;-inkscape-font-specification:'Barlow Ultra-Bold Italic';text-align:center;letter-spacing:0px;text-anchor:middle;fill:#770015;fill-opacity:1;stroke-width:0.264583"
       id="path1064" />
  </g>
</svg>
