<?xml version="1.0" encoding="UTF-8" standalone="no"?>
<svg
   xmlns:dc="http://purl.org/dc/elements/1.1/"
   xmlns:cc="http://creativecommons.org/ns#"
   xmlns:rdf="http://www.w3.org/1999/02/22-rdf-syntax-ns#"
   xmlns:svg="http://www.w3.org/2000/svg"
   xmlns="http://www.w3.org/2000/svg"
   xmlns:sodipodi="http://sodipodi.sourceforge.net/DTD/sodipodi-0.dtd"
   xmlns:inkscape="http://www.inkscape.org/namespaces/inkscape"
   width="172"
   height="172"
   viewBox="0 0 45.508333 45.508335"
   version="1.1"
   id="svg8"
   inkscape:version="1.0.2-2 (e86c870879, 2021-01-15)"
   sodipodi:docname="togoff.svg">
  <defs
     id="defs2" />
  <sodipodi:namedview
     id="base"
     pagecolor="#ffffff"
     bordercolor="#666666"
     borderopacity="1.0"
     inkscape:pageopacity="0.0"
     inkscape:pageshadow="2"
     inkscape:zoom="1.4142136"
     inkscape:cx="91.638566"
     inkscape:cy="183.21288"
     inkscape:document-units="px"
     inkscape:current-layer="layer1"
     inkscape:document-rotation="0"
     showgrid="false"
     fit-margin-top="0"
     fit-margin-left="0"
     fit-margin-right="0"
     fit-margin-bottom="0"
     units="px"
     inkscape:window-width="1920"
     inkscape:window-height="1017"
     inkscape:window-x="-8"
     inkscape:window-y="-8"
     inkscape:window-maximized="1" />
  <metadata
     id="metadata5">
    <rdf:RDF>
      <cc:Work
         rdf:about="">
        <dc:format>image/svg+xml</dc:format>
        <dc:type
           rdf:resource="http://purl.org/dc/dcmitype/StillImage" />
        <dc:title></dc:title>
      </cc:Work>
    </rdf:RDF>
  </metadata>
  <g
     inkscape:label="Layer 1"
     inkscape:groupmode="layer"
     id="layer1"
     transform="translate(10.261014,-92.359787)">
    <g
       aria-label="DOUBLE TAP TO RESET"
       transform="matrix(0,-1.0000008,0.99999921,0,0,0)"
       id="text853"
       style="font-style:italic;font-variant:normal;font-weight:bold;font-stretch:normal;font-size:3.70417px;line-height:1.25;font-family:Barlow;-inkscape-font-specification:'Barlow Bold Italic';text-align:center;letter-spacing:0px;text-anchor:middle;stroke-width:0.264583" />
    <g
       aria-label="CURRENT STATUS"
       id="text953"
       style="font-weight:bold;font-size:3.175px;line-height:1.25;font-family:'DM Sans';-inkscape-font-specification:'DM Sans Bold';text-align:center;letter-spacing:0px;text-anchor:middle;stroke-width:0.264583" />
    <rect
       style="fill:#000000;fill-opacity:1;stroke:none;stroke-width:1;stroke-linecap:square"
       id="rect847-8"
       width="45.508335"
       height="45.508335"
       x="-10.261014"
       y="92.359787" />
    <rect
       style="fill:#c0c0c0;fill-opacity:1;stroke:none;stroke-width:1;stroke-linecap:square"
       id="rect849-8"
       width="41.275002"
       height="41.275002"
       x="-8.1443491"
       y="94.476456" />
    <path
       d="m 1.011986,122.19988 q -2.0573999,0 -3.2575498,-1.143 -1.20015,-1.143 -1.20015,-3.0861 0,-0.47625 0.0381,-0.74295 l 0.47625,-3.81 q 0.17145,-1.4478 0.93345,-2.5527 0.7810499,-1.12395 1.98119989,-1.73355 1.21919991,-0.62865 2.70509991,-0.62865 1.3715999,0 2.3812499,0.51435 1.0096499,0.51435 1.5430499,1.46685 0.55245,0.93345 0.55245,2.19075 0,0.4953 -0.0381,0.74295 l -0.4572,3.81 q -0.17145,1.4859 -0.9524999,2.60985 -0.762,1.12395 -1.9812,1.7526 -1.2191999,0.6096 -2.7241499,0.6096 z m 0.32385,-2.7051 q 0.89535,0 1.50495,-0.59055 0.62865,-0.6096 0.7429499,-1.58115 l 0.4953,-3.94335 q 0.01905,-0.1143 0.01905,-0.3429 0,-0.8382 -0.47625,-1.3335 -0.4571999,-0.4953 -1.2572999,-0.4953 -0.8763,0 -1.50494995,0.6096 -0.60959997,0.59055 -0.72389997,1.5621 l -0.47624998,3.94335 q -0.01905,0.13335 -0.01905,0.381 0,0.8382 0.45719999,1.31445 0.45719998,0.47625 1.23824991,0.47625 z"
       style="font-style:italic;font-variant:normal;font-weight:800;font-stretch:normal;font-size:19.05px;line-height:1.25;font-family:Barlow;-inkscape-font-specification:'Barlow Ultra-Bold Italic';text-align:center;letter-spacing:0px;text-anchor:middle;fill:#a4243b;fill-opacity:1;stroke-width:0.264583"
       id="path1174" />
    <path
       d="m 18.176022,111.13183 q -0.01905,0.0953 -0.09525,0.17145 -0.05715,0.0571 -0.1524,0.0571 h -5.77215 q -0.1143,0 -0.1143,0.0953 l -0.28575,2.34315 q 0,0.0953 0.0762,0.0953 h 3.71475 q 0.09525,0 0.1524,0.0762 0.05715,0.0571 0.0381,0.1524 l -0.2667,2.22885 q -0.01905,0.0953 -0.09525,0.17145 -0.05715,0.0571 -0.1524,0.0571 h -3.71475 q -0.0762,0 -0.1143,0.0953 l -0.6096,5.08635 q -0.01905,0.0952 -0.09525,0.17145 -0.05715,0.0572 -0.1524,0.0572 H 7.9080725 q -0.09525,0 -0.1524,-0.0572 -0.05715,-0.0762 -0.0381,-0.17145 l 1.5811499,-12.8778 q 0,-0.0953 0.0762,-0.1524 0.0762,-0.0762 0.17145,-0.0762 h 8.7248996 q 0.09525,0 0.1524,0.0762 0.05715,0.0571 0.0381,0.1524 z"
       style="font-style:italic;font-variant:normal;font-weight:800;font-stretch:normal;font-size:19.05px;line-height:1.25;font-family:Barlow;-inkscape-font-specification:'Barlow Ultra-Bold Italic';text-align:center;letter-spacing:0px;text-anchor:middle;fill:#a4243b;fill-opacity:1;stroke-width:0.264583"
       id="path1176" />
    <path
       d="m 28.463002,111.13183 q -0.01905,0.0953 -0.09525,0.17145 -0.05715,0.0571 -0.1524,0.0571 h -5.77215 q -0.1143,0 -0.1143,0.0953 l -0.28575,2.34315 q 0,0.0953 0.0762,0.0953 h 3.71475 q 0.09525,0 0.1524,0.0762 0.05715,0.0571 0.0381,0.1524 l -0.2667,2.22885 q -0.01905,0.0953 -0.09525,0.17145 -0.05715,0.0571 -0.1524,0.0571 h -3.71475 q -0.0762,0 -0.1143,0.0953 l -0.6096,5.08635 q -0.01905,0.0952 -0.09525,0.17145 -0.05715,0.0572 -0.1524,0.0572 h -2.6289 q -0.09525,0 -0.1524,-0.0572 -0.05715,-0.0762 -0.0381,-0.17145 l 1.58115,-12.8778 q 0,-0.0953 0.0762,-0.1524 0.0762,-0.0762 0.17145,-0.0762 h 8.7249 q 0.09525,0 0.1524,0.0762 0.05715,0.0571 0.0381,0.1524 z"
       style="font-style:italic;font-variant:normal;font-weight:800;font-stretch:normal;font-size:19.05px;line-height:1.25;font-family:Barlow;-inkscape-font-specification:'Barlow Ultra-Bold Italic';text-align:center;letter-spacing:0px;text-anchor:middle;fill:#a4243b;fill-opacity:1;stroke-width:0.264583"
       id="path1178" />
    <path
       id="path1099"
       style="font-style:italic;font-variant:normal;font-weight:bold;font-stretch:normal;font-size:3.175px;line-height:1.25;font-family:Barlow;-inkscape-font-specification:'Barlow Bold Italic';text-align:center;letter-spacing:0px;text-anchor:middle;fill:#c0c0c0;fill-opacity:1;stroke-width:0.999999"
       d="M 8.8613281 0 L 8.7285156 1.1015625 C 8.720503 1.1415751 8.7279405 1.1789375 8.7519531 1.2109375 C 8.7759531 1.2348745 8.8076563 1.2460938 8.8476562 1.2460938 L 10.875 1.2460938 C 10.923 1.2460938 10.939828 1.266628 10.923828 1.3066406 L 10.111328 8 L 11.744141 8 L 12.568359 1.3066406 C 12.584359 1.266628 12.608625 1.2460938 12.640625 1.2460938 L 14.714844 1.2460938 C 14.754844 1.2460938 14.792219 1.2348745 14.824219 1.2109375 C 14.856219 1.1789375 14.871094 1.1415751 14.871094 1.1015625 L 15.005859 0 L 8.8613281 0 z M 17.384766 0 L 13.917969 8 L 15.677734 8 L 16.144531 6.8867188 C 16.160519 6.8547186 16.179112 6.8378906 16.203125 6.8378906 L 19.072266 6.8378906 C 19.088266 6.8378906 19.099434 6.8454541 19.107422 6.8613281 C 19.115434 6.8691391 19.119141 6.8786556 19.119141 6.8867188 L 19.3125 8 L 21.074219 8 L 19.582031 0 L 17.384766 0 z M 23.046875 0 L 22.050781 8 L 23.695312 8 L 24.064453 4.9785156 C 24.080453 4.9385282 24.104719 4.9179688 24.136719 4.9179688 L 25.791016 4.9179688 C 26.311016 4.9179688 26.783031 4.8134687 27.207031 4.6054688 C 27.631031 4.3894686 27.976234 4.0890781 28.240234 3.7050781 C 28.512234 3.3210781 28.680141 2.8770469 28.744141 2.3730469 C 28.760141 2.1810469 28.767578 2.0467969 28.767578 1.9667969 C 28.767578 1.2947969 28.560531 0.76114064 28.144531 0.36914062 C 27.984276 0.21202786 27.794578 0.095328525 27.589844 0 L 23.046875 0 z M 32.369141 0 L 31.386719 8 L 33.03125 8 L 33.435547 4.7265625 C 33.435547 4.6865751 33.456094 4.6660156 33.496094 4.6660156 L 36.076172 4.6660156 C 36.108172 4.6660156 36.123047 4.6865751 36.123047 4.7265625 L 35.71875 8 L 37.363281 8 L 38.345703 0 L 36.701172 0 L 36.316406 3.1542969 C 36.316406 3.1942843 36.295859 3.2148436 36.255859 3.2148438 L 33.675781 3.2148438 C 33.643781 3.2148435 33.626953 3.1942843 33.626953 3.1542969 L 34.013672 0 L 32.369141 0 z M 39.677734 0 L 38.695312 8 L 44.359375 8 L 44.5 6.8730469 C 44.5 6.7770469 44.455187 6.7304688 44.367188 6.7304688 L 40.550781 6.7304688 C 40.518781 6.7304688 40.503906 6.7099093 40.503906 6.6699219 L 40.744141 4.7246094 C 40.744141 4.684622 40.762734 4.6660156 40.802734 4.6660156 L 43.3125 4.6660156 C 43.352487 4.6660156 43.384191 4.6528435 43.408203 4.6289062 C 43.440191 4.5968811 43.458784 4.5614718 43.466797 4.5214844 L 43.611328 3.3574219 C 43.619341 3.3173589 43.611903 3.2856558 43.587891 3.2617188 C 43.563891 3.2297186 43.532187 3.2128906 43.492188 3.2128906 L 40.984375 3.2128906 C 40.952375 3.2128906 40.935547 3.1942843 40.935547 3.1542969 L 41.164062 1.2929688 C 41.164062 1.2770945 41.167781 1.2658755 41.175781 1.2578125 C 41.191781 1.2419385 41.208609 1.234375 41.224609 1.234375 L 45.050781 1.234375 C 45.090769 1.234375 45.124423 1.2212026 45.148438 1.1972656 C 45.18045 1.1652656 45.199044 1.1298563 45.207031 1.0898438 L 45.341797 0 L 39.677734 0 z M 46.482422 0 L 45.5 8 L 47.144531 8 L 47.546875 4.7617188 C 47.546875 4.721706 47.567422 4.7011719 47.607422 4.7011719 L 48.6875 4.7011719 C 48.7195 4.7011719 48.743766 4.718 48.759766 4.75 L 49.779297 8 L 51.503906 8 L 50.34375 4.6171875 C 50.32775 4.5770489 50.344578 4.5490771 50.392578 4.5332031 C 50.880578 4.3732031 51.279797 4.10275 51.591797 3.71875 C 51.903797 3.32675 52.09225 2.8584531 52.15625 2.3144531 C 52.17225 2.1224531 52.179688 1.98625 52.179688 1.90625 C 52.179685 1.25825 51.983797 0.74142187 51.591797 0.35742188 C 51.436149 0.20495029 51.251725 0.091963679 51.050781 0 L 46.482422 0 z M 53.621094 0 L 52.638672 8 L 58.302734 8 L 58.443359 6.8730469 C 58.443359 6.7770469 58.4005 6.7304688 58.3125 6.7304688 L 54.496094 6.7304688 C 54.464094 6.7304688 54.447266 6.7099093 54.447266 6.6699219 L 54.6875 4.7246094 C 54.6875 4.684622 54.708047 4.6660156 54.748047 4.6660156 L 57.255859 4.6660156 C 57.295847 4.6660156 57.32755 4.6528435 57.351562 4.6289062 C 57.383577 4.5968811 57.404122 4.5614718 57.412109 4.5214844 L 57.554688 3.3574219 C 57.5627 3.3173589 57.555263 3.2856558 57.53125 3.2617188 C 57.50725 3.2297186 57.475547 3.2128906 57.435547 3.2128906 L 54.927734 3.2128906 C 54.895734 3.2128906 54.878906 3.1942843 54.878906 3.1542969 L 55.107422 1.2929688 C 55.107422 1.2770945 55.111128 1.2658755 55.119141 1.2578125 C 55.135141 1.2419385 55.151969 1.234375 55.167969 1.234375 L 58.996094 1.234375 C 59.036081 1.234375 59.067784 1.2212026 59.091797 1.1972656 C 59.123809 1.1652656 59.144356 1.1298563 59.152344 1.0898438 L 59.285156 0 L 53.621094 0 z M 62.369141 0 L 62.236328 1.1015625 C 62.228316 1.1415751 62.235753 1.1789375 62.259766 1.2109375 C 62.283766 1.2348745 62.315469 1.2460938 62.355469 1.2460938 L 64.382812 1.2460938 C 64.430814 1.2460938 64.447641 1.266628 64.431641 1.3066406 L 63.619141 8 L 65.251953 8 L 66.076172 1.3066406 C 66.092172 1.266628 66.116436 1.2460938 66.148438 1.2460938 L 68.224609 1.2460938 C 68.264609 1.2460938 68.300031 1.2348745 68.332031 1.2109375 C 68.364031 1.1789375 68.378906 1.1415751 68.378906 1.1015625 L 68.513672 0 L 62.369141 0 z M 70.664062 0 C 70.61095 0.023991951 70.555789 0.043534538 70.503906 0.0703125 C 70.015906 0.3183125 69.614734 0.67095317 69.302734 1.1269531 C 68.990734 1.5829531 68.800516 2.1052656 68.728516 2.6972656 L 68.416016 5.265625 C 68.392003 5.433625 68.378906 5.590375 68.378906 5.734375 C 68.378906 6.518375 68.623328 7.1451875 69.111328 7.6171875 C 69.279614 7.7746161 69.474648 7.8957922 69.681641 8 L 72.599609 8 C 72.652722 7.976008 72.707883 7.9564655 72.759766 7.9296875 C 73.255766 7.6736875 73.658703 7.3173281 73.970703 6.8613281 C 74.282703 6.3973281 74.474875 5.865625 74.546875 5.265625 L 74.859375 2.6972656 C 74.883388 2.5372782 74.896484 2.3824813 74.896484 2.2304688 C 74.896484 1.4624686 74.648344 0.84681249 74.152344 0.3828125 C 73.986772 0.22538393 73.794011 0.10420783 73.587891 0 L 70.664062 0 z M 79.943359 0 C 79.736855 0.092837691 79.539256 0.19907364 79.359375 0.33398438 C 78.783362 0.75798437 78.451269 1.3345 78.363281 2.0625 C 78.347155 2.2064748 78.339844 2.3053155 78.339844 2.3613281 C 78.339844 2.7853281 78.44805 3.1416875 78.664062 3.4296875 C 78.880064 3.7176875 79.146797 3.9509531 79.466797 4.1269531 C 79.786797 4.2949531 80.180531 4.4665781 80.644531 4.6425781 C 81.068531 4.8105781 81.376359 4.9411094 81.568359 5.0371094 C 81.768359 5.125122 81.923156 5.229622 82.035156 5.3496094 C 82.155169 5.4696094 82.214844 5.6189219 82.214844 5.7949219 C 82.214844 6.0829345 82.099175 6.3254032 81.867188 6.5253906 C 81.643186 6.725378 81.307375 6.8261719 80.859375 6.8261719 C 80.371375 6.8261719 79.996422 6.7179405 79.732422 6.5019531 C 79.476397 6.2779531 79.368191 6.0055469 79.408203 5.6855469 L 79.431641 5.5058594 C 79.439704 5.4657964 79.43214 5.4340935 79.408203 5.4101562 C 79.384216 5.3781563 79.352513 5.3613281 79.3125 5.3613281 L 77.980469 5.3613281 C 77.940456 5.3613281 77.903094 5.3781563 77.871094 5.4101562 C 77.847157 5.4341439 77.832282 5.4658468 77.824219 5.5058594 L 77.787109 5.7695312 C 77.770983 5.9135063 77.763672 6.0217374 77.763672 6.09375 C 77.763672 6.76575 78.011813 7.2974531 78.507812 7.6894531 C 78.670029 7.8156205 78.858193 7.9144557 79.058594 8 L 82.121094 8 C 82.371113 7.9011265 82.608128 7.7849279 82.816406 7.6308594 C 83.408406 7.1908594 83.751656 6.5937969 83.847656 5.8417969 C 83.86353 5.6978221 83.873047 5.5989813 83.873047 5.5429688 C 83.873047 5.1189686 83.761109 4.7663281 83.537109 4.4863281 C 83.313109 4.2063407 83.059297 3.9973407 82.779297 3.8613281 C 82.507297 3.7173155 82.124906 3.5456905 81.628906 3.3457031 C 81.180906 3.1696905 80.845094 3.0297689 80.621094 2.9257812 C 80.405094 2.8217687 80.240906 2.7098311 80.128906 2.5898438 C 80.016906 2.4698436 79.960936 2.3224844 79.960938 2.1464844 C 79.960938 1.8344844 80.076581 1.5900625 80.308594 1.4140625 C 80.540594 1.2300751 80.852141 1.1386719 81.244141 1.1386719 C 81.716153 1.1386719 82.068794 1.2580469 82.300781 1.4980469 C 82.540781 1.7300469 82.639597 2.0136094 82.599609 2.3496094 L 82.587891 2.4453125 C 82.579828 2.4852999 82.587391 2.5226875 82.611328 2.5546875 C 82.635316 2.5786245 82.667019 2.5898436 82.707031 2.5898438 L 84.052734 2.5898438 C 84.092797 2.5898438 84.124498 2.5786245 84.148438 2.5546875 C 84.180362 2.5226875 84.198968 2.4852999 84.207031 2.4453125 L 84.232422 2.265625 C 84.248548 2.121625 84.255859 2.017125 84.255859 1.953125 C 84.255859 1.497125 84.140216 1.101625 83.908203 0.765625 C 83.692757 0.43474876 83.379026 0.1827695 82.978516 0 L 79.943359 0 z M 85.708984 0 L 84.726562 8 L 90.390625 8 L 90.53125 6.8730469 C 90.53125 6.7770469 90.486425 6.7304688 90.398438 6.7304688 L 86.583984 6.7304688 C 86.551984 6.7304688 86.535156 6.7099093 86.535156 6.6699219 L 86.775391 4.7246094 C 86.775391 4.684622 86.795948 4.6660156 86.835938 4.6660156 L 89.34375 4.6660156 C 89.383813 4.6660156 89.415516 4.6528435 89.439453 4.6289062 C 89.471378 4.5968811 89.491937 4.5614718 89.5 4.5214844 L 89.642578 3.3574219 C 89.650641 3.3173589 89.643078 3.2856558 89.619141 3.2617188 C 89.595153 3.2297186 89.56345 3.2128906 89.523438 3.2128906 L 87.015625 3.2128906 C 86.983625 3.2128906 86.966797 3.1942843 86.966797 3.1542969 L 87.195312 1.2929688 C 87.195315 1.2770945 87.198968 1.2658755 87.207031 1.2578125 C 87.223157 1.2419385 87.239985 1.234375 87.255859 1.234375 L 91.083984 1.234375 C 91.124047 1.234375 91.155748 1.2212026 91.179688 1.1972656 C 91.211612 1.1652656 91.232171 1.1298563 91.240234 1.0898438 L 91.373047 0 L 85.708984 0 z M 92.130859 0 L 91.996094 1.1015625 C 91.988031 1.1415751 91.995594 1.1789375 92.019531 1.2109375 C 92.043519 1.2348745 92.075222 1.2460938 92.115234 1.2460938 L 94.144531 1.2460938 C 94.192405 1.2460938 94.20728 1.266628 94.191406 1.3066406 L 93.378906 8 L 95.011719 8 L 95.835938 1.3066406 C 95.851937 1.266628 95.876203 1.2460938 95.908203 1.2460938 L 97.982422 1.2460938 C 98.022434 1.2460938 98.059797 1.2348745 98.091797 1.2109375 C 98.123797 1.1789375 98.138672 1.1415751 98.138672 1.1015625 L 98.273438 0 L 92.130859 0 z M 101.26172 0 L 101.12695 1.1015625 C 101.11914 1.1415751 101.12841 1.1789375 101.15234 1.2109375 C 101.17633 1.2348745 101.20803 1.2460938 101.24805 1.2460938 L 103.27539 1.2460938 C 103.32352 1.2460938 103.34034 1.266628 103.32422 1.3066406 L 102.51172 8 L 104.14453 8 L 104.9668 1.3066406 C 104.9828 1.266628 105.00706 1.2460938 105.03906 1.2460938 L 107.11523 1.2460938 C 107.15525 1.2460938 107.19261 1.2348745 107.22461 1.2109375 C 107.25661 1.1789375 107.27148 1.1415751 107.27148 1.1015625 L 107.40625 0 L 101.26172 0 z M 109.55469 0 C 109.50157 0.023991951 109.44641 0.043534538 109.39453 0.0703125 C 108.90653 0.3183125 108.50731 0.67095317 108.19531 1.1269531 C 107.88333 1.5829531 107.69115 2.1052656 107.61914 2.6972656 L 107.30664 5.265625 C 107.2827 5.433625 107.27148 5.590375 107.27148 5.734375 C 107.27148 6.518375 107.51591 7.1451875 108.00391 7.6171875 C 108.17219 7.7746161 108.36723 7.8957922 108.57422 8 L 111.49219 8 C 111.5453 7.976008 111.60046 7.9564655 111.65234 7.9296875 C 112.14834 7.6736875 112.55128 7.3173281 112.86328 6.8613281 C 113.17527 6.3973281 113.36744 5.865625 113.43945 5.265625 L 113.75195 2.6972656 C 113.77589 2.5372782 113.78711 2.3824813 113.78711 2.2304688 C 113.78711 1.4624686 113.53897 0.84681249 113.04297 0.3828125 C 112.8774 0.22538393 112.68464 0.10420783 112.47852 0 L 109.55469 0 z M 71.980469 1.1386719 C 72.372469 1.1386719 72.680297 1.2543407 72.904297 1.4863281 C 73.128297 1.7183281 73.240234 2.0335936 73.240234 2.4335938 C 73.240234 2.5455937 73.236528 2.6295595 73.228516 2.6855469 L 72.904297 5.3261719 C 72.840297 5.7901719 72.659281 6.1614063 72.363281 6.4414062 C 72.075281 6.7214064 71.715203 6.8613281 71.283203 6.8613281 C 70.899203 6.8613281 70.595094 6.7456593 70.371094 6.5136719 C 70.147094 6.2816719 70.035156 5.970125 70.035156 5.578125 C 70.035156 5.466125 70.038862 5.3821593 70.046875 5.3261719 L 70.371094 2.6855469 C 70.427094 2.2215469 70.604391 1.8503125 70.900391 1.5703125 C 71.196391 1.2823125 71.556469 1.1386719 71.980469 1.1386719 z M 110.87109 1.1386719 C 111.26309 1.1386719 111.57092 1.2543407 111.79492 1.4863281 C 112.01892 1.7183281 112.13086 2.0335936 112.13086 2.4335938 C 112.13086 2.5455937 112.1272 2.6295595 112.11914 2.6855469 L 111.79492 5.3261719 C 111.73092 5.7901719 111.55186 6.1614063 111.25586 6.4414062 C 110.96786 6.7214064 110.60778 6.8613281 110.17578 6.8613281 C 109.79178 6.8613281 109.48767 6.7456593 109.26367 6.5136719 C 109.03967 6.2816719 108.92773 5.970125 108.92773 5.578125 C 108.92773 5.466125 108.93139 5.3821593 108.93945 5.3261719 L 109.26367 2.6855469 C 109.31967 2.2215469 109.49502 1.8503125 109.79102 1.5703125 C 110.08702 1.2823125 110.44709 1.1386719 110.87109 1.1386719 z M 24.591797 1.234375 L 26.068359 1.234375 C 26.388359 1.234375 26.643936 1.325753 26.835938 1.5097656 C 27.027937 1.6857656 27.123047 1.9264686 27.123047 2.2304688 C 27.123047 2.6144687 26.996234 2.9334531 26.740234 3.1894531 C 26.484234 3.4374405 26.163297 3.5625 25.779297 3.5625 L 24.304688 3.5625 C 24.256686 3.5625 24.239859 3.5419405 24.255859 3.5019531 L 24.519531 1.2949219 C 24.535531 1.2549093 24.559797 1.234375 24.591797 1.234375 z M 48.027344 1.234375 L 49.564453 1.234375 C 49.860453 1.234375 50.095484 1.3220469 50.271484 1.4980469 C 50.455484 1.6660469 50.546875 1.8936406 50.546875 2.1816406 C 50.546875 2.5416532 50.4275 2.8383251 50.1875 3.0703125 C 49.9475 3.2943125 49.647109 3.40625 49.287109 3.40625 L 47.763672 3.40625 C 47.731672 3.40625 47.714844 3.3856905 47.714844 3.3457031 L 47.966797 1.2929688 C 47.966797 1.2770945 47.972481 1.2658755 47.980469 1.2578125 C 47.996469 1.2419385 48.011344 1.234375 48.027344 1.234375 z M 18.232422 1.8574219 C 18.248447 1.8493589 18.259591 1.8625313 18.267578 1.8945312 L 18.878906 5.4570312 C 18.878906 5.5050314 18.860314 5.5292969 18.820312 5.5292969 L 16.767578 5.5292969 C 16.735578 5.5292969 16.724434 5.5050314 16.732422 5.4570312 L 18.195312 1.8945312 C 18.203327 1.8705942 18.216422 1.8574219 18.232422 1.8574219 z "
       transform="matrix(0.26458334,0,0,0.26458334,-10.261014,92.359787)" />
  </g>
</svg>
